<svg xmlns="http://www.w3.org/2000/svg" viewBox="0 0 3900 2300"><defs><style>.cls-1,.cls-2{fill:none;stroke-miterlimit:10;}.cls-1{stroke:#ccc;}.cls-2{stroke:gray;}.cls-3{fill:#4ec9b0;}.cls-4{isolation:isolate;}.cls-5{fill:#8afff9;}.cls-6{fill:#fff;}.cls-7{opacity:0.25;}</style></defs><g id="bg"><g id="web"><polygon class="cls-1" points="524.32 162.64 387.8 207.15 358.07 347.64 464.88 443.61 601.4 399.1 631.13 258.62 524.32 162.64"/><polygon class="cls-1" points="434.79 583.55 298.26 628.06 268.56 768.54 375.36 864.52 511.88 820.01 541.6 679.52 434.79 583.55"/><polygon class="cls-1" points="281.07 110.21 144.56 154.72 114.83 295.2 221.65 391.18 358.17 346.67 387.88 206.18 281.07 110.21"/><polygon class="cls-1" points="357.51 346.92 221 391.43 191.28 531.92 298.08 627.89 434.61 583.38 464.32 442.9 357.51 346.92"/><polygon class="cls-1" points="601.13 398.9 464.61 443.4 434.88 583.89 541.7 679.87 678.22 635.36 707.93 494.87 601.13 398.9"/><polygon class="cls-1" points="511.79 820.29 375.26 864.8 345.55 1005.28 452.36 1101.26 588.88 1056.75 618.59 916.26 511.79 820.29"/><polygon class="cls-1" points="268.81 768.67 132.29 813.18 102.58 953.67 209.38 1049.64 345.9 1005.13 375.62 864.65 268.81 768.67"/><polygon class="cls-1" points="345.81 1005.41 209.28 1049.92 179.57 1190.41 286.38 1286.38 422.9 1241.87 452.62 1101.39 345.81 1005.41"/><polygon class="cls-1" points="588.6 1056.54 452.07 1101.05 422.36 1241.54 529.16 1337.51 665.68 1293 695.4 1152.52 588.6 1056.54"/><polygon class="cls-1" points="422.6 1242.54 286.07 1287.05 256.36 1427.54 363.17 1523.51 499.69 1479 529.4 1338.52 422.6 1242.54"/><polygon class="cls-1" points="255.59 1426.54 119.08 1471.05 89.36 1611.54 196.16 1707.51 332.69 1663 362.4 1522.52 255.59 1426.54"/><polygon class="cls-1" points="178.59 1190.54 42.08 1235.05 12.36 1375.54 119.17 1471.51 255.69 1427 285.4 1286.52 178.59 1190.54"/><polygon class="cls-1" points="909.6 1346.54 773.08 1391.05 743.36 1531.54 850.16 1627.51 986.68 1583 1016.4 1442.52 909.6 1346.54"/><polygon class="cls-1" points="1332.68 552.79 1196.16 597.3 1166.44 737.79 1273.26 833.76 1409.78 789.25 1439.49 648.77 1332.68 552.79"/><polygon class="cls-1" points="1010.65 265.67 874.13 310.17 844.41 450.66 951.23 546.64 1087.74 502.13 1117.45 361.64 1010.65 265.67"/><polygon class="cls-1" points="844.38 450.76 707.86 495.27 678.13 635.75 784.95 731.73 921.47 687.22 951.18 546.74 844.38 450.76"/><polygon class="cls-1" points="1254.38 316.76 1117.86 361.27 1088.13 501.75 1194.94 597.73 1331.46 553.22 1361.18 412.74 1254.38 316.76"/><polygon class="cls-1" points="1420.38 131.76 1283.86 176.27 1254.13 316.75 1360.94 412.73 1497.46 368.22 1527.18 227.74 1420.38 131.76"/><polygon class="cls-1" points="1586.38 -52.24 1449.86 -7.73 1420.13 132.76 1526.94 228.73 1663.46 184.22 1693.18 43.74 1586.38 -52.24"/><polygon class="cls-1" points="1829.38 -1.24 1692.86 43.27 1663.13 183.76 1769.94 279.73 1906.46 235.22 1936.18 94.74 1829.38 -1.24"/><polygon class="cls-1" points="1663.38 183.76 1526.86 228.27 1497.13 368.75 1603.94 464.73 1740.46 420.22 1770.18 279.74 1663.38 183.76"/><polygon class="cls-1" points="1983.38 470.76 1846.86 515.27 1817.13 655.75 1923.94 751.73 2060.47 707.22 2090.18 566.74 1983.38 470.76"/><polygon class="cls-1" points="1177.38 80.76 1040.86 125.27 1011.13 265.75 1117.94 361.73 1254.46 317.22 1284.18 176.74 1177.38 80.76"/><polygon class="cls-1" points="934.38 28.76 797.86 73.27 768.13 213.76 874.95 309.73 1011.47 265.22 1041.18 124.74 934.38 28.76"/><polygon class="cls-1" points="921.18 687.01 784.66 731.52 754.95 872.01 861.75 967.99 998.27 923.48 1027.99 782.99 921.18 687.01"/><polygon class="cls-1" points="767.32 214.12 630.79 258.63 601.09 399.12 707.88 495.1 844.41 450.59 874.13 310.1 767.32 214.12"/><polygon class="cls-2" points="3207.49 1715.41 3069.39 1760.43 3039.34 1902.53 3147.38 1999.62 3285.47 1954.6 3315.53 1812.49 3207.49 1715.41"/><polygon class="cls-2" points="3298.05 1289.64 3159.95 1334.66 3129.89 1476.77 3237.93 1573.85 3376.03 1528.83 3406.09 1386.73 3298.05 1289.64"/><polygon class="cls-2" points="3052.01 1236.6 2913.91 1281.63 2883.84 1423.73 2991.89 1520.82 3129.99 1475.79 3160.05 1333.69 3052.01 1236.6"/><polygon class="cls-2" points="3129.32 1476.05 2991.22 1521.07 2961.16 1663.18 3069.22 1760.26 3207.3 1715.24 3237.36 1573.13 3129.32 1476.05"/><polygon class="cls-2" points="3375.74 1528.62 3237.64 1573.64 3207.59 1715.75 3315.63 1812.83 3453.72 1767.81 3483.78 1625.71 3375.74 1528.62"/><polygon class="cls-2" points="2716.59 1611.67 2578.51 1656.69 2548.45 1798.79 2656.49 1895.88 2794.59 1850.86 2824.64 1708.75 2716.59 1611.67"/><polygon class="cls-2" points="2961.59 1663.67 2823.51 1708.69 2793.45 1850.79 2901.49 1947.88 3039.59 1902.86 3069.64 1760.75 2961.59 1663.67"/><polygon class="cls-2" points="3285.38 1954.88 3147.28 1999.9 3117.22 2142.01 3225.26 2239.09 3363.36 2194.07 3393.41 2051.96 3285.38 1954.88"/><polygon class="cls-2" points="3039.59 1902.67 2901.51 1947.69 2871.45 2089.79 2979.49 2186.88 3117.59 2141.86 3147.64 1999.75 3039.59 1902.67"/><polygon class="cls-2" points="2794.59 1849.67 2656.51 1894.69 2626.45 2036.79 2734.49 2133.88 2872.59 2088.86 2902.64 1946.75 2794.59 1849.67"/><polygon class="cls-2" points="2548.59 1798.67 2410.51 1843.69 2380.45 1985.79 2488.49 2082.88 2626.59 2037.86 2656.64 1895.75 2548.59 1798.67"/><polygon class="cls-2" points="2626.59 2037.67 2488.51 2082.69 2458.45 2224.79 2566.49 2321.88 2704.59 2276.86 2734.64 2134.75 2626.59 2037.67"/><polygon class="cls-2" points="2301.59 1746.67 2163.51 1791.69 2133.45 1933.79 2241.49 2030.88 2379.59 1985.86 2409.64 1843.75 2301.59 1746.67"/><polygon class="cls-2" points="3117.49 2142.14 2979.39 2187.16 2949.32 2329.27 3057.36 2426.35 3195.47 2381.33 3225.53 2239.22 3117.49 2142.14"/><polygon class="cls-2" points="3530.95 2007.4 3392.86 2052.43 3362.8 2194.53 3470.84 2291.62 3608.95 2246.59 3638.99 2104.49 3530.95 2007.4"/><polygon class="cls-2" points="3465.74 1102.29 3327.64 1147.32 3297.59 1289.42 3405.64 1386.51 3543.72 1341.49 3573.78 1199.38 3465.74 1102.29"/><polygon class="cls-2" points="3633.74 915.29 3495.64 960.32 3465.59 1102.42 3573.64 1199.51 3711.72 1154.49 3741.78 1012.38 3633.74 915.29"/><polygon class="cls-2" points="3789.99 1393.86 3651.91 1438.88 3621.84 1580.99 3729.89 1678.07 3867.97 1633.05 3898.03 1490.94 3789.99 1393.86"/><polygon class="cls-2" points="3621.8 1581.08 3483.7 1626.11 3453.64 1768.21 3561.68 1865.3 3699.78 1820.28 3729.84 1678.17 3621.8 1581.08"/><polygon class="cls-2" points="3699.49 1820.06 3561.41 1865.09 3531.34 2007.19 3639.39 2104.28 3777.47 2059.25 3807.53 1917.15 3699.49 1820.06"/><polygon class="cls-2" points="3543.86 1341.72 3405.76 1386.74 3375.7 1528.85 3483.74 1625.93 3621.84 1580.91 3651.89 1438.8 3543.86 1341.72"/></g></g><g id="Layer_1" data-name="Layer 1"><g id="Tree"><path class="cls-3" d="M365.58,452a25.34,25.34,0,1,1,27.09-23.46A25.33,25.33,0,0,1,365.58,452Zm2.61-36.36a11.11,11.11,0,1,0,10.29,11.88,11.11,11.11,0,0,0-10.29-11.88Z"/><path class="cls-3" d="M586.35,517.83a25.34,25.34,0,1,1,27.1-23.47A25.34,25.34,0,0,1,586.35,517.83ZM589,481.48a11.11,11.11,0,1,0,10.29,11.88A11.11,11.11,0,0,0,589,481.48Z"/><path class="cls-3" d="M790.86,574.46A25.34,25.34,0,1,1,818,551,25.33,25.33,0,0,1,790.86,574.46Zm2.62-36.36A11.11,11.11,0,1,0,803.75,550h0A11.13,11.13,0,0,0,793.48,538.1Z"/><path class="cls-3" d="M737.71,359.36A25.34,25.34,0,1,1,764.8,335.9h0A25.36,25.36,0,0,1,737.71,359.36ZM740.33,323a11.11,11.11,0,1,0,10.29,11.89A11.11,11.11,0,0,0,740.33,323Z"/><path class="cls-3" d="M312.36,237.82a25.34,25.34,0,1,1,27.1-23.46A25.34,25.34,0,0,1,312.36,237.82ZM315,201.46a11.11,11.11,0,1,0,10.29,11.9A11.11,11.11,0,0,0,315,201.46Z"/><path class="cls-3" d="M949.06,420.05a25.34,25.34,0,1,1,27.1-23.45A25.34,25.34,0,0,1,949.06,420.05Zm2.62-36.36A11.11,11.11,0,1,0,962,395.58a11.11,11.11,0,0,0-10.29-11.89Z"/><path class="cls-3" d="M844.64,793.15a25.34,25.34,0,1,1,27.09-23.46h0A25.37,25.37,0,0,1,844.64,793.15Zm2.61-36.36a11.11,11.11,0,1,0,10.29,11.88A11.11,11.11,0,0,0,847.25,756.79Z"/><path class="cls-3" d="M847.58,749.69,803.92,567.9A7.11,7.11,0,0,0,790,571l.06.22,44,183.3A18.22,18.22,0,0,1,847.58,749.69Z"/><path class="cls-3" d="M1216.27,695.12a25.34,25.34,0,1,1,27.09-23.46h0A25.36,25.36,0,0,1,1216.27,695.12Zm2.62-36.36a11.11,11.11,0,1,0,10.27,11.88h0A11.13,11.13,0,0,0,1218.89,658.76Z"/><path class="cls-3" d="M936.75,383.27,757.57,331.55a18.16,18.16,0,0,1-3.66,13.75l178.87,51.63a18.06,18.06,0,0,1,4-13.66Z"/><path class="cls-3" d="M722.48,340.5,594.4,472.81a7.11,7.11,0,0,0,10.18,9.93L732.29,350.81A18.27,18.27,0,0,1,722.48,340.5Z"/><path class="cls-3" d="M1203.65,658.73,810.8,547.47a18.79,18.79,0,0,1,.06,3A18.24,18.24,0,0,1,806.5,561l393.56,111.48a17.85,17.85,0,0,1-.15-4A18.11,18.11,0,0,1,1203.65,658.73Z"/><path class="cls-3" d="M778.14,538.21l-172-48.71a18,18,0,0,1-3.3,13.86L774.69,552a18,18,0,0,1,3.45-13.82Z"/><path class="cls-3" d="M368.7,408.57a6.15,6.15,0,0,1,.75.09l-43.51-182.2a18.18,18.18,0,0,1-13.06,4.27l-.56-.07,43.48,182A18,18,0,0,1,368.7,408.57Z"/><path class="cls-3" d="M574.5,480.54,385.6,427v1a18.16,18.16,0,0,1-5.86,12.11l190.32,53.91a16.48,16.48,0,0,1,0-2.81A18,18,0,0,1,574.5,480.54Z"/></g><g id="subtitle"><g class="cls-4"><path class="cls-5" d="M1379.62,1520.18a2.15,2.15,0,0,1-2.7-.4,38.74,38.74,0,0,1-4.3-4.4,7.72,7.72,0,0,1-1.81-3.41,24.11,24.11,0,0,1,.2-6.8,14.44,14.44,0,0,0,.91-4.21c.06-1.33.1-2.27.1-2.8a48.51,48.51,0,0,1,.7-5.61q.69-4.4,1.5-9.3c.53-3.27,1-5.78,1.4-7.51a5.34,5.34,0,0,1,.2-1c.13-.53.26-1,.4-1.4.26-1.2.63-2.81,1.1-4.81s.9-4.47,1.3-7.41q1.61-5,2.7-9.9a37.16,37.16,0,0,0,1.11-6.71,5.54,5.54,0,0,1,2.8-5.21,15,15,0,0,1,1.2-3.1c.67-1.4,1.27-2.57,1.8-3.5q4-11.42,6.61-18.12a92.15,92.15,0,0,1,5.4-11.71q1.2-3.4,2.7-7a23.75,23.75,0,0,1,3.11-5.6,24.83,24.83,0,0,1,4.6-6.71q3.6-4.1,7.61-8t6.41-5.9a48.45,48.45,0,0,1,7-3,23.51,23.51,0,0,1,6.81-.81q3.8,0,5.1.9a43.61,43.61,0,0,1,3.91,3.31,19.79,19.79,0,0,1,3.2,4,11.83,11.83,0,0,1,.4,3.8,31,31,0,0,1-2.1,6.71,64.06,64.06,0,0,1-3.61,7.41q-1.91,3.3-3.1,3.5c-1.6.54-2.77.37-3.5-.5a6.63,6.63,0,0,1-1.1-4.3,9.57,9.57,0,0,0-1.4-4,12.64,12.64,0,0,1,.3-2.1,9.42,9.42,0,0,1,1.1-2.9c.66-1.33.83-2.33.5-3s-1.24-.81-2.7-.4c-.4.26-1.47,1.07-3.21,2.4s-3.57,2.83-5.5,4.5-3.64,3.24-5.11,4.71-2.2,2.4-2.2,2.8a27.6,27.6,0,0,1-3.8,6c-.94,1.33-1.77,2.63-2.51,3.9a8.37,8.37,0,0,0-1.1,2.3,14.57,14.57,0,0,1-.1,1.7,1,1,0,0,1-1.1.9,35.21,35.21,0,0,1-2.8,6.41,33.46,33.46,0,0,1-2,4.1,14.91,14.91,0,0,1-2,2.91h.2c-1.21,3.33-2.14,5.9-2.81,7.7a18,18,0,0,0-1,3.11c0,.53,1,.8,2.9.8a40.6,40.6,0,0,0,6.91-.7q4-.71,7.21-1.5a17,17,0,0,1,3.8-.81,19.76,19.76,0,0,1,4,.81,8.16,8.16,0,0,1,2.7,2.9,16.77,16.77,0,0,1,1.6,3.6,2.83,2.83,0,0,1-.1,2.5c-.14.54-1.6,1.27-4.4,2.21a65.59,65.59,0,0,1-8.41,2.2q-3.6.8-8.81,1.8t-9.11,1.8c-2.6.54-3.9,1-3.9,1.4a1.69,1.69,0,0,0-1.4.9,3,3,0,0,0-.61,1.5,8.6,8.6,0,0,1-.8,4.21q-.39,1.2-1.4,4.8t-2.1,8q-1.1,4.41-1.8,8a31.36,31.36,0,0,0-.7,4.8,6.15,6.15,0,0,0-1.4,3.51c-.14,1.4-.2,2.63-.2,3.7a9.82,9.82,0,0,0-1,2.9,13.65,13.65,0,0,0-.2,2.1v.81a3.87,3.87,0,0,1-.2,1.2c-.14,1.33-.3,3.1-.5,5.3s-.3,4.37-.3,6.51l-.61,5.8a34.22,34.22,0,0,1-.6,4.51A5.68,5.68,0,0,1,1379.62,1520.18Z"/><path class="cls-5" d="M1447.08,1496a7.29,7.29,0,0,1-4.1-1c-1-.67-2.24-1.61-3.7-2.81a27,27,0,0,1-5.41-7.7,12.28,12.28,0,0,1-1-7.11,11.56,11.56,0,0,0,.4-4.6c-.67-.67-.87-1.11-.6-1.31a3.05,3.05,0,0,0,.8-1.1c.8,0,1.07-.73.8-2.2-.27-1.07.27-3.4,1.6-7a56.55,56.55,0,0,1,5-10.21q1.2-2,3.6-5.3t5.31-6.61a48.76,48.76,0,0,1,5.3-5.3,52.44,52.44,0,0,1,8.81-6.21,33.62,33.62,0,0,1,8.21-3,32.7,32.7,0,0,1,6.1-1q1.71,0,4.71,3.2a16.27,16.27,0,0,1,6.7,4.81q2.12,2.8,2.71,8.2a47.67,47.67,0,0,1-.9,13.72q-1.52,7.71-9.51,19.12a55.14,55.14,0,0,1-9.21,10.71,75,75,0,0,1-10,6.9,39.56,39.56,0,0,1-7.61,4.11A29.72,29.72,0,0,1,1447.08,1496Zm19.22-21.22a71.79,71.79,0,0,0,7.71-10.21,66.65,66.65,0,0,0,5.5-12.21,19.87,19.87,0,0,0,1-5.51,38.51,38.51,0,0,0-.1-6.21c-.21-1.93-.71-3-1.51-3.3a8.74,8.74,0,0,0-5.8-.9q-3.4.51-7.41,3.9a50.48,50.48,0,0,0-10.81,12.92,171.78,171.78,0,0,0-9,17.51q-3,7.21-1.3,11.51t7.41,3Q1457.69,1483.95,1466.3,1474.74Z"/><path class="cls-5" d="M1517.75,1496a7.27,7.27,0,0,1-4.1-1c-1-.67-2.24-1.61-3.71-2.81a27,27,0,0,1-5.4-7.7,12.28,12.28,0,0,1-1-7.11,11.56,11.56,0,0,0,.4-4.6c-.67-.67-.87-1.11-.6-1.31a3.17,3.17,0,0,0,.8-1.1c.8,0,1.06-.73.8-2.2-.27-1.07.26-3.4,1.6-7a55.86,55.86,0,0,1,5-10.21c.8-1.33,2-3.1,3.61-5.3s3.37-4.4,5.3-6.61a49.66,49.66,0,0,1,5.31-5.3,52,52,0,0,1,8.81-6.21,33.7,33.7,0,0,1,8.2-3,32.77,32.77,0,0,1,6.11-1q1.69,0,4.7,3.2a16.31,16.31,0,0,1,6.71,4.81q2.1,2.8,2.7,8.2a47.67,47.67,0,0,1-.9,13.72q-1.5,7.71-9.51,19.12a54.46,54.46,0,0,1-9.21,10.71,75,75,0,0,1-10,6.9,39.8,39.8,0,0,1-7.6,4.11A29.72,29.72,0,0,1,1517.75,1496Zm19.22-21.22a71.79,71.79,0,0,0,7.71-10.21,67.33,67.33,0,0,0,5.5-12.21,19.9,19.9,0,0,0,1-5.51,38.51,38.51,0,0,0-.1-6.21q-.3-2.89-1.5-3.3a8.77,8.77,0,0,0-5.81-.9c-2.27.34-4.73,1.64-7.4,3.9a50.48,50.48,0,0,0-10.81,12.92,169.78,169.78,0,0,0-9,17.51q-3,7.21-1.3,11.51t7.4,3Q1528.37,1483.95,1537,1474.74Z"/><path class="cls-5" d="M1590.42,1497.56a10,10,0,0,1-4.51-2.3,21,21,0,0,1-4-4.41,16.83,16.83,0,0,1-2.3-4.5c0-.27-.34-.8-1-1.6q-.81-.6-.9-5.31a84.8,84.8,0,0,1,.5-10.51,75.22,75.22,0,0,1,1.4-9.21q1-3.2,3-8.71c1.33-3.66,2.47-7,3.4-9.9l5.41-11.62-8-2.2a4.26,4.26,0,0,1-2.3-1.6,3.66,3.66,0,0,1-.9-2,6.86,6.86,0,0,1,1.8-3.9c1.2-1.54,2.07-2.31,2.6-2.31a21.72,21.72,0,0,0,3.71.2c1.8,0,3.57-.06,5.3-.2a18,18,0,0,0,3.2-.4,7.33,7.33,0,0,0,1.61-1.1,4.35,4.35,0,0,0,1.2-2.1c.66-1.47,1.26-2.83,1.8-4.1a37.68,37.68,0,0,1,2.2-4.31q1.39-2.6,2.3-4.4t2.91-5c.66-.93,1.4-2.06,2.2-3.4a12.24,12.24,0,0,1,3-3.4,5.09,5.09,0,0,1,3.7-1.5q1.9.09,4.91,2.7a8.4,8.4,0,0,1,1.8,3c.13.67-.4,1.94-1.6,3.8a69.09,69.09,0,0,1-3.7,6.81q-2.12,3.4-3.91,6.81-3.21,4.39-1.2,5t11.21-.8q5.8-1,8.41.5a6.13,6.13,0,0,1,3,4.91c.4,3.2.07,5.14-1,5.8s-4.14,1-9.21,1a60.1,60.1,0,0,1-8.21.9c-2.27.07-3.93.1-5,.1-1.74.14-2.87.2-3.4.2a11.4,11.4,0,0,0-2.41.4,4.06,4.06,0,0,0-2.3,1.3,15.3,15.3,0,0,0-1.5,2.51,18,18,0,0,0-2.4,4.2,83,83,0,0,1-4,7.41q-2.81,8.4-4.8,16.71t-3.2,16.12q-.81,5,.2,6.91c.66,1.27,2.4,2,5.2,2.3a53.38,53.38,0,0,0,7.11-.1,38,38,0,0,0,7.71-1.1l4.6-2.1a46.07,46.07,0,0,0,4.4-2.31q1.82-1,5.41-3.2c.67-1.07,1.4-1.4,2.2-1a4.89,4.89,0,0,1,2,3,13.91,13.91,0,0,1-1,5q-1,2.6-7.4,6.2-9,5.61-16.52,6.71A38.74,38.74,0,0,1,1590.42,1497.56Z"/><path class="cls-5" d="M1633.06,1543.8c-.54,0-1.2,0-2,.1s-1.54-.5-2.21-1.7a5.24,5.24,0,0,1-.9-3,35.57,35.57,0,0,1,.9-7.21,64.24,64.24,0,0,0,1.6-6.7,30.86,30.86,0,0,0,.61-4.91,17.51,17.51,0,0,1,.5-3.1,18.27,18.27,0,0,0,.5-3.31,14.05,14.05,0,0,0,1.6-4.4,24.22,24.22,0,0,0,.6-5,5.72,5.72,0,0,1,2.4-4.41,14.68,14.68,0,0,1,.7-4,14.43,14.43,0,0,0,.7-3.21c.4-1.86,1.3-5.17,2.7-9.9s3.14-10.11,5.21-16.12,4.1-11.88,6.11-17.62,3.8-10.61,5.4-14.61a55.73,55.73,0,0,0,3.3-9.71,31.57,31.57,0,0,0,.9-6.11,2.08,2.08,0,0,1,.4-1.3c.27-.33.87-1,1.81-2.1q2-2,3.5-1.2a33.9,33.9,0,0,1,3.7,2.4,29.08,29.08,0,0,1,2.31,4.41q.69,1.8-.1,6.2a12.48,12.48,0,0,1-1,5.21,20,20,0,0,1-1.8,3.3c-.53.74-.67,1-.4.9q8.21-3.79,14.52-4.1a19,19,0,0,1,10.61,2.2,16.29,16.29,0,0,1,6.5,6.91,22.5,22.5,0,0,1,2.2,10.21,20,20,0,0,1-1,5.7,30.88,30.88,0,0,1-2.5,6,18.2,18.2,0,0,1-2.7,3.9c-.54,0-1.07.44-1.6,1.3s-1.07,1.84-1.6,2.9a26.09,26.09,0,0,1-5.11,4.51,39.05,39.05,0,0,1-6.91,4c-2.27,1-3.93,1.3-5,.9a1.12,1.12,0,0,0-1,1.2c0,.27-1.07.84-3.2,1.71a60,60,0,0,1-7.41,2.4,29.93,29.93,0,0,1-7.41,1.1q-4.2,0-6-1.6a7.37,7.37,0,0,0-.91,1.2,2.77,2.77,0,0,0-.5,1.4,21.11,21.11,0,0,1-.9,4.5,57.6,57.6,0,0,1-2.1,6.31c-.8,2-1.53,3-2.2,3a1.71,1.71,0,0,0,0,2.21q-.21,4.59-1.2,6.2a28.79,28.79,0,0,1-.6,4.81,19.42,19.42,0,0,1-1.4,4.8,16.38,16.38,0,0,1-.7,4.71c-.47,1.53-1,2.3-1.51,2.3s-.87,1-1,2.5-.2,2.63-.2,3.3a15.55,15.55,0,0,1-2,7.81Q1635.46,1543.8,1633.06,1543.8Zm24.22-66.86a32.24,32.24,0,0,0,6.61-1.4,102.26,102.26,0,0,0,10.31-3.51,28.94,28.94,0,0,0,7.9-4.3,33.88,33.88,0,0,0,8.11-10.51,10.94,10.94,0,0,0-.5-11.31c-1.07-1.87-3-2.63-5.8-2.3a25.13,25.13,0,0,0-9.21,3.3,46.13,46.13,0,0,0-9.41,7,30.2,30.2,0,0,0-4.41,6.4,54.92,54.92,0,0,0-3.3,7.61,26.63,26.63,0,0,0-1.5,6.41C1655.94,1476.07,1656.35,1476.94,1657.28,1476.94Z"/><path class="cls-5" d="M1720.34,1492a8.43,8.43,0,0,1-2.5-2.8q-.71-1.39-.1-5.4a82.66,82.66,0,0,1,1.6-9.91q1-4.3,2.4-9.91a66,66,0,0,1,2.3-8.21q1.9-5.81,4.71-12.61t5.6-12.92a70,70,0,0,1,4.81-9.1,5.43,5.43,0,0,1,3.9-1,6.07,6.07,0,0,1,3.9,1.8c1.47,1.2,1.71,3.3.7,6.3a137.73,137.73,0,0,1-6.1,14.12l-3.6,8.1c-.81,1.81-1.14,2.88-1,3.21s.74.17,1.81-.5a21.12,21.12,0,0,1,4.4-5.11q3.19-2.9,6.81-5.7t6.8-5a46.25,46.25,0,0,1,4.41-2.8,17.11,17.11,0,0,1,3.7-1.7,25.2,25.2,0,0,0,2.9-1.1,16.63,16.63,0,0,1,9.41-1.61q4.82.62,6,3.61c.13,1.07.93,2.13,2.4,3.2.53,0,.87.4,1,1.2s-.7,1.5-2.1,1.7-3.17.37-5.31.5a15.57,15.57,0,0,0-4.6,1q-2,.8-4.8,2-7.62,4.39-14.52,8.61a61.65,61.65,0,0,0-13.31,11.21,30.24,30.24,0,0,0-2.8,3.8q-1.41,2.21-3,4.8a11.36,11.36,0,0,0-2,4.41c-.67,2.27-1.23,4.44-1.7,6.5a27.87,27.87,0,0,0-.7,3.71,18.39,18.39,0,0,1-2.6,5.6c-1.61,2.14-2.94,3.21-4,3.21S1722.47,1494.09,1720.34,1492Z"/><path class="cls-5" d="M1791.8,1492.55a9,9,0,0,1-2.3-4,12.91,12.91,0,0,1-.5-4.8,10.81,10.81,0,0,1,1-4,5.25,5.25,0,0,1,.5-2.5,2.33,2.33,0,0,0,.3-1.7,6.22,6.22,0,0,1,.4-2.8q.6-2,1.2-3.81,1.39-3.2,3-7.71t3-8.9l2.4-7.61c.67-2.13,1.07-3.47,1.2-4,0-1.61,1.07-2.47,3.2-2.61,1.61-.53,2.81-.56,3.61-.1s1.86,1.77,3.2,3.91q1.61,1.6,1.2,4.8a28.86,28.86,0,0,1-2.6,8,45.14,45.14,0,0,0-1.9,4.6,29.47,29.47,0,0,0-1.5,5.41c-.54,1.07-1.17,2.57-1.91,4.5s-1.37,3.77-1.9,5.51a18.54,18.54,0,0,0-.8,2.9c-.27,1.27-.6,2.6-1,4a14.27,14.27,0,0,1-1.6,3.71q-1.8,8.2-3.3,9.61T1791.8,1492.55Zm19.42-81.27a9,9,0,0,1-1.8-2.91,12.86,12.86,0,0,1-1-3.6c-.14-1.13,0-1.7.4-1.7,1.06-.13,2.33-1.27,3.8-3.4s2.07-4,1.8-5.61a2.28,2.28,0,0,1,.6-1.5,2.66,2.66,0,0,1,1.4-.9,4.52,4.52,0,0,1,4.71-.5,11,11,0,0,1,4.3,4.3c1.2,2.54,1.54,4.64,1,6.31s-2,4-4.4,6.9c-2,2.68-3.84,4.14-5.51,4.41S1813.09,1412.75,1811.22,1411.28Z"/><path class="cls-5" d="M1897.9,1489.75a11.91,11.91,0,0,1-6.61-1.7,12.83,12.83,0,0,1-4.4-5.71,47,47,0,0,1-1.3-6.3,45.87,45.87,0,0,1-.5-6.61,9.14,9.14,0,0,1,.6-4.1,3.81,3.81,0,0,0,.7-2.9c-.07-1.41-.1-2.91-.1-4.51-.13-2.67-.77-4.17-1.9-4.5s-2.77.1-4.91,1.3q-3.6,2.21-9.41,5.9t-12.11,8.11q-6.3,4.41-11.91,9.21-4.41,4.8-5.3,7.31c-.6,1.67-1.44,2.5-2.51,2.5a2.63,2.63,0,0,1-2.7.1c-.73-.47-1.77-1.23-3.1-2.3-.94-1.07-1.87-2.1-2.8-3.11a11.38,11.38,0,0,1-1.81-2.3,28.71,28.71,0,0,1,.61-4.2c.4-2.14.9-4.27,1.5-6.41s1-3.53,1.3-4.2c.66,0,1.23-.67,1.7-2a20,20,0,0,1,2.3-4.41,32.4,32.4,0,0,1,2.1-6.5c1.14-2.74,2.17-5.17,3.11-7.31a47.33,47.33,0,0,0,3.9-8,33.86,33.86,0,0,0,1.5-8,1.62,1.62,0,0,1,.4-1.5,1.82,1.82,0,0,1,1.4-.7,3.53,3.53,0,0,1,3.81-.9,8.27,8.27,0,0,1,4,3.1,13.16,13.16,0,0,1,2.9,9.91q-.7,5.12-6.5,14.52c-.94,2.13-1.64,3.77-2.1,4.9a7.69,7.69,0,0,0-.71,2.7q4.21-2.79,6.91-4.7c1.8-1.27,3.24-2.23,4.31-2.9a45.75,45.75,0,0,1,4.6-3.61q3.6-2.6,7.71-5.1a22.08,22.08,0,0,1,6.1-2.9c1.07-.54,2.2-1,3.41-1.51a8.53,8.53,0,0,1,2.6-.7,8,8,0,0,1,4.1,1.71,29.38,29.38,0,0,1,4.71,4,10,10,0,0,1,2.6,3.9,12.17,12.17,0,0,0,.1,1.6,15.17,15.17,0,0,0,.3,1.61,27,27,0,0,1,.9,7,59.42,59.42,0,0,1-.3,8c-.27,2.4-.73,3.8-1.4,4.2.13.67.47,1,1,1v1c-.67,0-.94.57-.8,1.7a10.3,10.3,0,0,0,1.3,3.7,13.91,13.91,0,0,0,2.3,3.2q2.4,2.42,2,4.51C1901.24,1488.25,1900,1489.22,1897.9,1489.75Z"/><path class="cls-5" d="M1930.93,1497.56a10,10,0,0,1-4.5-2.3,20.75,20.75,0,0,1-4-4.41,16.9,16.9,0,0,1-2.31-4.5c0-.27-.33-.8-1-1.6q-.8-.6-.9-5.31a84.8,84.8,0,0,1,.5-10.51,77.23,77.23,0,0,1,1.4-9.21q1-3.2,3-8.71c1.33-3.66,2.46-7,3.4-9.9l5.4-11.62-8-2.2a4.28,4.28,0,0,1-2.31-1.6,3.66,3.66,0,0,1-.9-2,6.86,6.86,0,0,1,1.8-3.9c1.21-1.54,2.07-2.31,2.61-2.31a21.58,21.58,0,0,0,3.7.2c1.8,0,3.57-.06,5.31-.2a18,18,0,0,0,3.2-.4,7.28,7.28,0,0,0,1.6-1.1,4.35,4.35,0,0,0,1.2-2.1c.67-1.47,1.27-2.83,1.8-4.1a37.91,37.91,0,0,1,2.21-4.31q1.39-2.6,2.3-4.4t2.9-5c.67-.93,1.4-2.06,2.2-3.4a12.12,12.12,0,0,1,3-3.4,5.09,5.09,0,0,1,3.7-1.5q1.9.09,4.9,2.7a8.63,8.63,0,0,1,1.81,3c.13.67-.41,1.94-1.61,3.8a69.09,69.09,0,0,1-3.7,6.81q-2.1,3.4-3.9,6.81-3.21,4.39-1.2,5t11.21-.8q5.81-1,8.4.5a6.12,6.12,0,0,1,3,4.91c.4,3.2.06,5.14-1,5.8s-4.14,1-9.21,1a60.27,60.27,0,0,1-8.21.9c-2.27.07-3.94.1-5,.1-1.73.14-2.87.2-3.4.2a11.43,11.43,0,0,0-2.4.4,4,4,0,0,0-2.3,1.3,15.3,15.3,0,0,0-1.5,2.51,17.88,17.88,0,0,0-2.41,4.2q-1.6,3.4-4,7.41-2.81,8.4-4.8,16.71t-3.21,16.12c-.53,3.34-.47,5.64.2,6.91s2.4,2,5.21,2.3a53.23,53.23,0,0,0,7.1-.1,38,38,0,0,0,7.71-1.1l4.61-2.1a47.3,47.3,0,0,0,4.4-2.31q1.8-1,5.4-3.2c.67-1.07,1.41-1.4,2.21-1s1.46,1.4,2,3a14.13,14.13,0,0,1-1,5q-1,2.6-7.41,6.2-9,5.61-16.51,6.71A38.8,38.8,0,0,1,1930.93,1497.56Z"/><path class="cls-5" d="M1993.59,1499.76a30.84,30.84,0,0,1-7.21-4.3,17.75,17.75,0,0,1-4.4-4.51,3.92,3.92,0,0,1,.6-2.5c.4-.47,1.57-.67,3.5-.6s5.11.37,9.51.9a55.38,55.38,0,0,0,6-.4,49.61,49.61,0,0,0,6.71-1.2c2.06-.53,3.23-1.2,3.5-2,.67,0,.8-.23.4-.7s-.87-1-1.4-1.51a3.19,3.19,0,0,1-1.8-.7,3.32,3.32,0,0,0-1.81-.7c0-.66-.63-1.43-1.9-2.3a20.56,20.56,0,0,0-3.9-2.1q-4.41-3.6-7.61-6.51t-2.4-3.9v-1c-.94,0-2-1.33-3.1-4a18.57,18.57,0,0,1-1.71-7.2,18,18,0,0,1,1.41-6.11,48,48,0,0,1,3.8-7.7,34.14,34.14,0,0,1,5-6.61,90.54,90.54,0,0,1,9-7.31q5.42-3.9,10.71-7a40,40,0,0,1,8.91-4.11,18.68,18.68,0,0,1,6.71-1.4,10.74,10.74,0,0,1,5.5,1.4,12.67,12.67,0,0,1,3.71,2.9,38.39,38.39,0,0,1,3,3.81,12.07,12.07,0,0,1,1.7,3.3,38.73,38.73,0,0,1-.4,5.31,31,31,0,0,1-1.1,5.1c-.47,1.47-1.17,2.2-2.1,2.2a1.12,1.12,0,0,0-1,1.2q0,2-3,4.61a18,18,0,0,1-6.6,3.1c-1.87.34-3-.37-3.41-2.1a5.34,5.34,0,0,1-.8-1.4.92.92,0,0,0-1-.6,3.64,3.64,0,0,1-1.2-2.6,4,4,0,0,1,1.2-2.21c.67,0,1.54-.76,2.61-2.3a37.19,37.19,0,0,0,2.9-5,11.15,11.15,0,0,0,1.3-3.71c0-.8-.1-1.26-.3-1.4a5,5,0,0,0-1.9-.2q-2.81,1.2-6.81,3.2t-7.51,3.91a22.92,22.92,0,0,0-5.1,3.5c-.54.94-.87,1.5-1,1.7s-.47.3-1,.3c0-.53-.44-.3-1.3.7s-1.94,2.37-3.21,4.11-2.47,3.44-3.6,5.1-2,2.9-2.5,3.71a6,6,0,0,0-.9,2.3,13.54,13.54,0,0,0-.5,3.5c-.54,1.6-.47,2.7.2,3.3s2.13,1.84,4.4,3.71q7,5.2,11,8.61a68.71,68.71,0,0,1,6,5.6,9.42,9.42,0,0,1,2.4,4q3.6,6,2.2,9.21t-6.81,5.61a22.26,22.26,0,0,1-6.6,1.6,87.68,87.68,0,0,1-9.41.7A48.55,48.55,0,0,1,1993.59,1499.76Z"/></g><g class="cls-4"><path class="cls-6" d="M2120.09,1496a7.27,7.27,0,0,1-4.1-1q-1.5-1-3.71-2.81a27,27,0,0,1-5.4-7.7,12.28,12.28,0,0,1-1-7.11,11.56,11.56,0,0,0,.4-4.6c-.67-.67-.87-1.11-.6-1.31a3.17,3.17,0,0,0,.8-1.1c.8,0,1.06-.73.8-2.2-.27-1.07.26-3.4,1.6-7a55.86,55.86,0,0,1,5-10.21q1.22-2,3.61-5.3t5.3-6.61a49.66,49.66,0,0,1,5.31-5.3,52,52,0,0,1,8.81-6.21,33.7,33.7,0,0,1,8.2-3,32.77,32.77,0,0,1,6.11-1q1.7,0,4.7,3.2a16.31,16.31,0,0,1,6.71,4.81q2.1,2.8,2.7,8.2a47.67,47.67,0,0,1-.9,13.72q-1.5,7.71-9.51,19.12a54.8,54.8,0,0,1-9.2,10.71,75.6,75.6,0,0,1-10,6.9,39.85,39.85,0,0,1-7.61,4.11A29.72,29.72,0,0,1,2120.09,1496Zm19.22-21.22a71.79,71.79,0,0,0,7.71-10.21,66.65,66.65,0,0,0,5.5-12.21,19.9,19.9,0,0,0,1-5.51,38.51,38.51,0,0,0-.1-6.21q-.3-2.89-1.5-3.3a8.75,8.75,0,0,0-5.8-.9c-2.28.34-4.74,1.64-7.41,3.9a50.48,50.48,0,0,0-10.81,12.92,169.78,169.78,0,0,0-9,17.51q-3,7.21-1.3,11.51t7.41,3Q2130.7,1483.95,2139.31,1474.74Z"/><path class="cls-6" d="M2181.55,1520.18a2.15,2.15,0,0,1-2.7-.4,39.49,39.49,0,0,1-4.31-4.4,7.8,7.8,0,0,1-1.8-3.41,24.11,24.11,0,0,1,.2-6.8,14.74,14.74,0,0,0,.9-4.21c.07-1.33.1-2.27.1-2.8a48.51,48.51,0,0,1,.7-5.61q.71-4.4,1.5-9.3c.54-3.27,1-5.78,1.4-7.51a5.76,5.76,0,0,1,.21-1c.13-.53.26-1,.4-1.4.26-1.2.63-2.81,1.1-4.81s.9-4.47,1.3-7.41c1.06-3.33,2-6.63,2.7-9.9a37.79,37.79,0,0,0,1.1-6.71,5.54,5.54,0,0,1,2.8-5.21,16.29,16.29,0,0,1,1.2-3.1c.67-1.4,1.27-2.57,1.81-3.5q4-11.42,6.6-18.12a93.51,93.51,0,0,1,5.41-11.71q1.2-3.4,2.7-7a23.42,23.42,0,0,1,3.1-5.6,25.16,25.16,0,0,1,4.61-6.71q3.6-4.1,7.61-8t6.4-5.9a48.47,48.47,0,0,1,7-3,23.43,23.43,0,0,1,6.8-.81q3.81,0,5.11.9a42.43,42.43,0,0,1,3.9,3.31,19.6,19.6,0,0,1,3.21,4,12.13,12.13,0,0,1,.4,3.8,30.54,30.54,0,0,1-2.11,6.71,62.49,62.49,0,0,1-3.6,7.41q-1.91,3.3-3.1,3.5c-1.6.54-2.77.37-3.51-.5a6.69,6.69,0,0,1-1.1-4.3,9.57,9.57,0,0,0-1.4-4,12.64,12.64,0,0,1,.3-2.1,9.68,9.68,0,0,1,1.1-2.9c.67-1.33.84-2.33.5-3s-1.23-.81-2.7-.4c-.4.26-1.47,1.07-3.2,2.4s-3.57,2.83-5.51,4.5-3.63,3.24-5.1,4.71-2.2,2.4-2.2,2.8a27.25,27.25,0,0,1-3.81,6c-.93,1.33-1.77,2.63-2.5,3.9a8.37,8.37,0,0,0-1.1,2.3c0,.54,0,1.1-.1,1.7a1,1,0,0,1-1.1.9,35.91,35.91,0,0,1-2.8,6.41,33.58,33.58,0,0,1-2,4.1,14.91,14.91,0,0,1-2,2.91h.2q-1.8,5-2.8,7.7a18,18,0,0,0-1,3.11c0,.53,1,.8,2.9.8a40.69,40.69,0,0,0,6.91-.7q4-.71,7.2-1.5a17.1,17.1,0,0,1,3.81-.81,19.71,19.71,0,0,1,4,.81,8,8,0,0,1,2.7,2.9,16.84,16.84,0,0,1,1.61,3.6,2.83,2.83,0,0,1-.1,2.5c-.14.54-1.61,1.27-4.41,2.21a64.74,64.74,0,0,1-8.41,2.2c-2.4.53-5.34,1.13-8.8,1.8s-6.51,1.27-9.11,1.8-3.91,1-3.91,1.4a1.7,1.7,0,0,0-1.4.9,2.92,2.92,0,0,0-.6,1.5,8.72,8.72,0,0,1-.8,4.21c-.27.8-.73,2.4-1.4,4.8s-1.37,5.08-2.1,8-1.34,5.61-1.8,8a31.83,31.83,0,0,0-.71,4.8,6.15,6.15,0,0,0-1.4,3.51c-.13,1.4-.2,2.63-.2,3.7a10.12,10.12,0,0,0-1,2.9,15,15,0,0,0-.2,2.1v.81a3.87,3.87,0,0,1-.2,1.2c-.13,1.33-.3,3.1-.5,5.3s-.3,4.37-.3,6.51l-.6,5.8a34.22,34.22,0,0,1-.6,4.51A5.76,5.76,0,0,1,2181.55,1520.18Z"/><path class="cls-6" d="M2299.46,1497.56a10,10,0,0,1-4.51-2.3,21,21,0,0,1-4-4.41,16.83,16.83,0,0,1-2.3-4.5c0-.27-.34-.8-1-1.6q-.79-.6-.9-5.31a84.8,84.8,0,0,1,.5-10.51,74.92,74.92,0,0,1,1.41-9.21q1-3.2,3-8.71c1.33-3.66,2.47-7,3.4-9.9l5.41-11.62-8-2.2a4.22,4.22,0,0,1-2.3-1.6,3.66,3.66,0,0,1-.9-2,6.86,6.86,0,0,1,1.8-3.9c1.2-1.54,2.06-2.31,2.6-2.31a21.66,21.66,0,0,0,3.7.2c1.8,0,3.57-.06,5.31-.2a18,18,0,0,0,3.2-.4,7.28,7.28,0,0,0,1.6-1.1,4.27,4.27,0,0,0,1.2-2.1c.67-1.47,1.27-2.83,1.81-4.1a36.12,36.12,0,0,1,2.2-4.31q1.39-2.6,2.3-4.4t2.9-5c.67-.93,1.4-2.06,2.2-3.4a12.44,12.44,0,0,1,3-3.4,5.09,5.09,0,0,1,3.7-1.5c1.27.06,2.9,1,4.91,2.7a8.72,8.72,0,0,1,1.8,3c.13.67-.4,1.94-1.6,3.8a69.22,69.22,0,0,1-3.71,6.81q-2.1,3.4-3.9,6.81-3.21,4.39-1.2,5t11.21-.8q5.8-1,8.41.5a6.13,6.13,0,0,1,3,4.91c.4,3.2.06,5.14-1,5.8s-4.14,1-9.21,1a60.1,60.1,0,0,1-8.21.9c-2.27.07-3.94.1-5,.1-1.74.14-2.87.2-3.41.2a11.43,11.43,0,0,0-2.4.4,4.06,4.06,0,0,0-2.3,1.3,15.3,15.3,0,0,0-1.5,2.51,17.61,17.61,0,0,0-2.4,4.2q-1.61,3.4-4,7.41-2.81,8.4-4.8,16.71t-3.21,16.12c-.53,3.34-.47,5.64.2,6.91s2.41,2,5.21,2.3a53.38,53.38,0,0,0,7.11-.1,38,38,0,0,0,7.7-1.1l4.61-2.1a46.07,46.07,0,0,0,4.4-2.31q1.8-1,5.41-3.2c.66-1.07,1.4-1.4,2.2-1a4.89,4.89,0,0,1,2,3,13.91,13.91,0,0,1-1,5q-1,2.6-7.41,6.2-9,5.61-16.51,6.71A38.74,38.74,0,0,1,2299.46,1497.56Z"/><path class="cls-6" d="M2357.11,1488.15a8.62,8.62,0,0,1-2.9-.1,7.54,7.54,0,0,1-2.91-1.3,18.63,18.63,0,0,1-2.2-2.5,4.25,4.25,0,0,1-.3-2.91q.3-2,1.3-6.2,1-3.21,2.4-8.91t3-11.31a52.76,52.76,0,0,1,1.7-6.61q1.1-3.4,2.3-6.3t1.8-4.51q1.61-5.6,3.11-9.81t3.7-9.71q2.21-5.51,5.4-14.71,4.41-12,6.71-18.32t3.4-9.21a42.68,42.68,0,0,0,1.51-4.5,3,3,0,0,1,.9-2.4,3.29,3.29,0,0,1,2.3-.8,5.12,5.12,0,0,1,4.5,2.7,14.69,14.69,0,0,1,2.1,6.4,12.14,12.14,0,0,1-1.2,6.91q-3.19,7.21-6.8,17.12t-7,19.42q-3.41,9.51-6.41,16.11a11.55,11.55,0,0,1-.6,2.8,22.84,22.84,0,0,1-1.4,3.61l-2.2,4.4a13.92,13.92,0,0,1-.6,3c-.4,1.47-.94,3.28-1.6,5.41q-.81,2.4-1.9,6.21a52.17,52.17,0,0,0-1.51,6.4,35.64,35.64,0,0,1,4.21-5.4c2.13-2.41,4.13-4.47,6-6.21,2.14-1.87,4.54-3.93,7.21-6.21a77,77,0,0,1,6.41-5q2.4-1.61,6.2-4.2a.8.8,0,0,1,.7-.91,11.91,11.91,0,0,1,1.51-.09q.8,0,.9-.21a3.07,3.07,0,0,0,.1-1c0-.66.76-1.26,2.3-1.8a33,33,0,0,1,5.4-1.3,33.78,33.78,0,0,1,5.11-.5,6.39,6.39,0,0,1,3.8,1,17.51,17.51,0,0,1,3.61,4.41,17,17,0,0,1,3.1,7.7,19.78,19.78,0,0,1-.9,9.31,29,29,0,0,1-.5,4.51,35.2,35.2,0,0,0-.5,6.1l-1.2,6.41h3.2a14,14,0,0,1,4.4,1c.53.53,1.07,1,1.6,1.5a2.45,2.45,0,0,0,1.61.7c1.6,0,2.2.64,1.8,1.9a6.92,6.92,0,0,1-3,3.51q-4.8,3.2-8.7,3.2a9.86,9.86,0,0,1-7.11-3.2,15,15,0,0,1-4-7.61q-.81-4.2.8-10.61.79-8.8.9-12.91t-2.1-4.11q-2,0-7,2.71a93.79,93.79,0,0,0-11.21,7.3,141.73,141.73,0,0,0-12.21,10.21,66.27,66.27,0,0,0-10,11.61q-2.4,3-4.61,5.31A7.17,7.17,0,0,1,2357.11,1488.15Z"/><path class="cls-6" d="M2478,1492a17.46,17.46,0,0,1-9.71,4.21,20.9,20.9,0,0,1-19.32-8.81,22.67,22.67,0,0,1-4.4-10.11,59.13,59.13,0,0,1-.2-14.91,38.3,38.3,0,0,1,5-15.72,62.32,62.32,0,0,1,10.71-14.11,37.67,37.67,0,0,1,12.52-8.61c2-1.33,3.7-2,5.1-1.9s3.57.23,6.51.5a21.53,21.53,0,0,1,6.9,1.8,10.23,10.23,0,0,1,3.71,3.2,16.07,16.07,0,0,1,4,5.91,17.34,17.34,0,0,1,1,5.7q-.8,4.41-5.9,10.71a38.46,38.46,0,0,1-13.32,10.31,27.65,27.65,0,0,1-9.61,1.2,15.59,15.59,0,0,1-8.6-2.6c-2.54-1.06-4.21-.9-5,.5s-1.53,4.78-2.2,10.11q-.79,7.62,1.2,11.11a7.66,7.66,0,0,0,5.41,4.11c2.66.53,4.77.9,6.3,1.1s3.44-.37,5.71-1.7a34.23,34.23,0,0,1,4-2.31,3.5,3.5,0,0,0,1.3-.8c.33-.33,1.17-1.16,2.5-2.5.94-.93,1.67-1.63,2.21-2.1a2.63,2.63,0,0,1,1.8-.7,2.37,2.37,0,0,1,1.8.9,5.55,5.55,0,0,0,1.6,1.3q2,0,.9,2.4a22.2,22.2,0,0,1-4.3,5.71A41.51,41.51,0,0,1,2478,1492Zm-.2-42.44a24,24,0,0,0,8.71-7.1,7.13,7.13,0,0,0,1.7-3.91,5.67,5.67,0,0,0-2.6-4.7c-1.74-1.27-4.34-1.43-7.81-.5a14.2,14.2,0,0,0-5,2.9,48.15,48.15,0,0,0-5.31,5.11,49.69,49.69,0,0,0-4,5c-1,1.47-1.37,2.34-1.1,2.6.4.67,1.53,1.17,3.4,1.5a26.53,26.53,0,0,0,6.31.3A16,16,0,0,0,2477.82,1449.51Z"/></g><g class="cls-4"><path class="cls-3" d="M2553.29,1543.8c-.54,0-1.2,0-2,.1s-1.53-.5-2.2-1.7a5.24,5.24,0,0,1-.9-3,35.57,35.57,0,0,1,.9-7.21,64.24,64.24,0,0,0,1.6-6.7,30.56,30.56,0,0,0,.6-4.91,17.86,17.86,0,0,1,.51-3.1,18.27,18.27,0,0,0,.5-3.31,14.05,14.05,0,0,0,1.6-4.4,24.22,24.22,0,0,0,.6-5,5.72,5.72,0,0,1,2.4-4.41,14.68,14.68,0,0,1,.7-4,14.43,14.43,0,0,0,.7-3.21c.4-1.86,1.3-5.17,2.7-9.9s3.14-10.11,5.21-16.12,4.1-11.88,6.1-17.62,3.81-10.61,5.41-14.61a55.73,55.73,0,0,0,3.3-9.71,31.57,31.57,0,0,0,.9-6.11,2.08,2.08,0,0,1,.4-1.3c.27-.33.87-1,1.81-2.1q2-2,3.5-1.2a33.9,33.9,0,0,1,3.7,2.4,28,28,0,0,1,2.3,4.41q.71,1.8-.1,6.2a12.48,12.48,0,0,1-1,5.21,20,20,0,0,1-1.8,3.3c-.53.74-.67,1-.4.9q8.2-3.79,14.52-4.1a19,19,0,0,1,10.61,2.2,16.29,16.29,0,0,1,6.5,6.91,22.5,22.5,0,0,1,2.2,10.21,20,20,0,0,1-1,5.7,30.88,30.88,0,0,1-2.5,6,18.2,18.2,0,0,1-2.7,3.9c-.54,0-1.07.44-1.6,1.3s-1.07,1.84-1.6,2.9a26.09,26.09,0,0,1-5.11,4.51,39.05,39.05,0,0,1-6.91,4c-2.27,1-3.93,1.3-5,.9a1.12,1.12,0,0,0-1,1.2q0,.4-3.21,1.71a59.23,59.23,0,0,1-7.4,2.4,29.93,29.93,0,0,1-7.41,1.1q-4.2,0-6-1.6a7.37,7.37,0,0,0-.91,1.2,2.77,2.77,0,0,0-.5,1.4,21.11,21.11,0,0,1-.9,4.5,57.6,57.6,0,0,1-2.1,6.31c-.8,2-1.53,3-2.2,3a1.71,1.71,0,0,0,0,2.21q-.21,4.59-1.2,6.2a28.79,28.79,0,0,1-.6,4.81,19.42,19.42,0,0,1-1.4,4.8,16.38,16.38,0,0,1-.7,4.71c-.47,1.53-1,2.3-1.51,2.3s-.87,1-1,2.5-.2,2.63-.2,3.3a15.55,15.55,0,0,1-2,7.81Q2555.69,1543.8,2553.29,1543.8Zm24.22-66.86a32.24,32.24,0,0,0,6.61-1.4,102.26,102.26,0,0,0,10.31-3.51,28.94,28.94,0,0,0,7.9-4.3,34,34,0,0,0,8.11-10.51,10.94,10.94,0,0,0-.5-11.31c-1.07-1.87-3-2.63-5.8-2.3a25.13,25.13,0,0,0-9.21,3.3,46.13,46.13,0,0,0-9.41,7,30.2,30.2,0,0,0-4.41,6.4,54.92,54.92,0,0,0-3.3,7.61,26.63,26.63,0,0,0-1.5,6.41C2576.17,1476.07,2576.57,1476.94,2577.51,1476.94Z"/><path class="cls-3" d="M2639,1492.55a9.15,9.15,0,0,1-2.31-4,13.12,13.12,0,0,1-.5-4.8,11,11,0,0,1,1-4,5.12,5.12,0,0,1,.51-2.5,2.33,2.33,0,0,0,.3-1.7,6.08,6.08,0,0,1,.4-2.8q.6-2,1.2-3.81,1.39-3.2,3-7.71t3-8.9c.93-2.94,1.74-5.48,2.4-7.61s1.07-3.47,1.21-4c0-1.61,1.06-2.47,3.2-2.61,1.6-.53,2.8-.56,3.6-.1s1.87,1.77,3.21,3.91q1.59,1.6,1.2,4.8a28.94,28.94,0,0,1-2.61,8,47.58,47.58,0,0,0-1.9,4.6,31.15,31.15,0,0,0-1.5,5.41c-.53,1.07-1.17,2.57-1.9,4.5s-1.37,3.77-1.9,5.51a17.5,17.5,0,0,0-.8,2.9c-.27,1.27-.6,2.6-1,4a14.29,14.29,0,0,1-1.61,3.71q-1.8,8.2-3.3,9.61C2642.87,1495.89,2641.23,1495.09,2639,1492.55Zm19.41-81.27a9.15,9.15,0,0,1-1.8-2.91,13.21,13.21,0,0,1-1-3.6c-.13-1.13,0-1.7.4-1.7,1.07-.13,2.34-1.27,3.81-3.4s2.06-4,1.8-5.61a2.28,2.28,0,0,1,.6-1.5,2.62,2.62,0,0,1,1.4-.9,4.51,4.51,0,0,1,4.7-.5,11,11,0,0,1,4.31,4.3q1.8,3.81,1,6.31c-.54,1.67-2,4-4.41,6.9-2,2.68-3.83,4.14-5.5,4.41S2660.25,1412.75,2658.38,1411.28Z"/><path class="cls-3" d="M2688,1496a7.29,7.29,0,0,1-4.1-1c-1-.67-2.24-1.61-3.7-2.81a27,27,0,0,1-5.41-7.7,12.28,12.28,0,0,1-1-7.11,11.56,11.56,0,0,0,.4-4.6c-.67-.67-.87-1.11-.6-1.31a3.17,3.17,0,0,0,.8-1.1c.8,0,1.07-.73.8-2.2-.27-1.07.27-3.4,1.6-7a55.26,55.26,0,0,1,5-10.21q1.2-2,3.6-5.3t5.3-6.61a49.66,49.66,0,0,1,5.31-5.3,52,52,0,0,1,8.81-6.21,33.62,33.62,0,0,1,8.21-3,32.7,32.7,0,0,1,6.1-1q1.7,0,4.71,3.2a16.27,16.27,0,0,1,6.7,4.81q2.1,2.8,2.71,8.2a47.35,47.35,0,0,1-.91,13.72q-1.5,7.71-9.5,19.12a55.14,55.14,0,0,1-9.21,10.71,75.6,75.6,0,0,1-10,6.9,39.85,39.85,0,0,1-7.61,4.11A29.72,29.72,0,0,1,2688,1496Zm19.22-21.22a71.79,71.79,0,0,0,7.71-10.21,66.65,66.65,0,0,0,5.5-12.21,19.9,19.9,0,0,0,1-5.51,37.39,37.39,0,0,0-.1-6.21q-.3-2.89-1.5-3.3a8.75,8.75,0,0,0-5.8-.9q-3.4.51-7.41,3.9a50.48,50.48,0,0,0-10.81,12.92,171.78,171.78,0,0,0-9,17.51q-3,7.21-1.3,11.51t7.41,3Q2698.62,1483.95,2707.23,1474.74Z"/><path class="cls-3" d="M2815.73,1489.75a11.85,11.85,0,0,1-6.6-1.7,12.77,12.77,0,0,1-4.41-5.71,51.06,51.06,0,0,1-1.8-12.91,9.14,9.14,0,0,1,.6-4.1,3.81,3.81,0,0,0,.7-2.9c-.07-1.41-.1-2.91-.1-4.51-.13-2.67-.77-4.17-1.9-4.5s-2.77.1-4.91,1.3q-3.6,2.21-9.4,5.9t-12.12,8.11q-6.3,4.41-11.91,9.21-4.4,4.8-5.3,7.31c-.6,1.67-1.44,2.5-2.5,2.5a2.65,2.65,0,0,1-2.71.1c-.73-.47-1.77-1.23-3.1-2.3-.94-1.07-1.87-2.1-2.8-3.11a10.88,10.88,0,0,1-1.8-2.3,29.66,29.66,0,0,1,.6-4.2c.4-2.14.9-4.27,1.5-6.41s1-3.53,1.3-4.2c.67,0,1.23-.67,1.7-2a20,20,0,0,1,2.3-4.41,32.4,32.4,0,0,1,2.1-6.5c1.14-2.74,2.17-5.17,3.11-7.31a46.57,46.57,0,0,0,3.9-8,33.86,33.86,0,0,0,1.5-8,1.62,1.62,0,0,1,.4-1.5,1.82,1.82,0,0,1,1.4-.7,3.53,3.53,0,0,1,3.81-.9,8.22,8.22,0,0,1,4,3.1,13.16,13.16,0,0,1,2.9,9.91q-.69,5.12-6.5,14.52c-.94,2.13-1.64,3.77-2.1,4.9a7.63,7.63,0,0,0-.7,2.7q4.2-2.79,6.9-4.7c1.8-1.27,3.24-2.23,4.31-2.9a45.75,45.75,0,0,1,4.6-3.61q3.6-2.6,7.71-5.1a22.08,22.08,0,0,1,6.1-2.9c1.07-.54,2.21-1,3.41-1.51a8.53,8.53,0,0,1,2.6-.7,8,8,0,0,1,4.1,1.71,29.38,29.38,0,0,1,4.71,4,9.86,9.86,0,0,1,2.6,3.9,12.17,12.17,0,0,0,.1,1.6,15.17,15.17,0,0,0,.3,1.61,27,27,0,0,1,.9,7,59.42,59.42,0,0,1-.3,8c-.27,2.4-.73,3.8-1.4,4.2.13.67.47,1,1,1v1c-.67,0-.93.57-.8,1.7a10.3,10.3,0,0,0,1.3,3.7,13.91,13.91,0,0,0,2.3,3.2c1.61,1.61,2.27,3.11,2,4.51S2817.87,1489.22,2815.73,1489.75Z"/><path class="cls-3" d="M2870.18,1492a17.46,17.46,0,0,1-9.71,4.21,20.87,20.87,0,0,1-19.31-8.81,22.69,22.69,0,0,1-4.41-10.11,59.61,59.61,0,0,1-.2-14.91,38.18,38.18,0,0,1,5-15.72,61.75,61.75,0,0,1,10.71-14.11,37.54,37.54,0,0,1,12.51-8.61c2-1.33,3.7-2,5.1-1.9s3.57.23,6.51.5a21.68,21.68,0,0,1,6.91,1.8,10.28,10.28,0,0,1,3.7,3.2,16.07,16.07,0,0,1,4,5.91,17.34,17.34,0,0,1,1,5.7q-.8,4.41-5.9,10.71a38.33,38.33,0,0,1-13.31,10.31,27.68,27.68,0,0,1-9.61,1.2,15.65,15.65,0,0,1-8.61-2.6c-2.54-1.06-4.21-.9-5,.5s-1.53,4.78-2.2,10.11q-.8,7.62,1.2,11.11a7.68,7.68,0,0,0,5.41,4.11q4,.79,6.3,1.1t5.71-1.7a34.23,34.23,0,0,1,4-2.31,3.42,3.42,0,0,0,1.3-.8l2.51-2.5c.93-.93,1.66-1.63,2.2-2.1a2.63,2.63,0,0,1,1.8-.7,2.36,2.36,0,0,1,1.8.9,5.55,5.55,0,0,0,1.6,1.3q2,0,.9,2.4a22.2,22.2,0,0,1-4.3,5.71A41.51,41.51,0,0,1,2870.18,1492Zm-.2-42.44a24,24,0,0,0,8.71-7.1,7.13,7.13,0,0,0,1.7-3.91,5.67,5.67,0,0,0-2.6-4.7c-1.74-1.27-4.34-1.43-7.81-.5a14.29,14.29,0,0,0-5,2.9,48.15,48.15,0,0,0-5.31,5.11,49.69,49.69,0,0,0-4,5c-1,1.47-1.37,2.34-1.1,2.6.4.67,1.53,1.17,3.4,1.5a26.53,26.53,0,0,0,6.31.3A16,16,0,0,0,2870,1449.51Z"/><path class="cls-3" d="M2935.24,1492a17.46,17.46,0,0,1-9.7,4.21,20.9,20.9,0,0,1-19.32-8.81,22.69,22.69,0,0,1-4.41-10.11,59.61,59.61,0,0,1-.2-14.91,38.18,38.18,0,0,1,5-15.72,61.75,61.75,0,0,1,10.71-14.11,37.54,37.54,0,0,1,12.51-8.61c2-1.33,3.7-2,5.1-1.9s3.57.23,6.51.5a21.68,21.68,0,0,1,6.91,1.8,10.2,10.2,0,0,1,3.7,3.2,16,16,0,0,1,4,5.91,17.36,17.36,0,0,1,1,5.7q-.81,4.41-5.91,10.71a38.33,38.33,0,0,1-13.31,10.31,27.68,27.68,0,0,1-9.61,1.2,15.65,15.65,0,0,1-8.61-2.6c-2.54-1.06-4.2-.9-5,.5s-1.53,4.78-2.2,10.11q-.8,7.62,1.2,11.11a7.68,7.68,0,0,0,5.41,4.11q4,.79,6.31,1.1t5.7-1.7a34.23,34.23,0,0,1,4-2.31,3.54,3.54,0,0,0,1.31-.8l2.5-2.5c.93-.93,1.67-1.63,2.2-2.1a2.63,2.63,0,0,1,1.8-.7,2.36,2.36,0,0,1,1.8.9,5.68,5.68,0,0,0,1.6,1.3c1.34,0,1.64.8.91,2.4a22.28,22.28,0,0,1-4.31,5.71A41.18,41.18,0,0,1,2935.24,1492Zm-.2-42.44a24,24,0,0,0,8.71-7.1,7.06,7.06,0,0,0,1.7-3.91,5.67,5.67,0,0,0-2.6-4.7c-1.73-1.27-4.34-1.43-7.81-.5a14.29,14.29,0,0,0-5,2.9,48.15,48.15,0,0,0-5.31,5.11,49.69,49.69,0,0,0-4,5c-1,1.47-1.37,2.34-1.1,2.6.4.67,1.53,1.17,3.4,1.5a26.53,26.53,0,0,0,6.31.3A16,16,0,0,0,2935,1449.51Z"/><path class="cls-3" d="M2968.88,1492a8.59,8.59,0,0,1-2.51-2.8q-.7-1.39-.1-5.4a82.52,82.52,0,0,1,1.61-9.91q1-4.3,2.4-9.91a64.2,64.2,0,0,1,2.3-8.21q1.9-5.81,4.7-12.61t5.61-12.92a71.41,71.41,0,0,1,4.8-9.1,5.47,5.47,0,0,1,3.91-1,6.07,6.07,0,0,1,3.9,1.8q2.2,1.8.7,6.3a137.73,137.73,0,0,1-6.1,14.12l-3.61,8.1c-.8,1.81-1.13,2.88-1,3.21s.73.17,1.8-.5a21.2,21.2,0,0,1,4.41-5.11q3.2-2.9,6.8-5.7c2.41-1.87,4.67-3.54,6.81-5a45.23,45.23,0,0,1,4.4-2.8,17.42,17.42,0,0,1,3.71-1.7,25.2,25.2,0,0,0,2.9-1.1,16.63,16.63,0,0,1,9.41-1.61c3.2.41,5.21,1.61,6,3.61.13,1.07.93,2.13,2.4,3.2.53,0,.86.4,1,1.2s-.7,1.5-2.1,1.7-3.17.37-5.31.5a15.57,15.57,0,0,0-4.6,1q-2,.8-4.81,2-7.61,4.39-14.51,8.61a61.65,61.65,0,0,0-13.31,11.21,31.27,31.27,0,0,0-2.81,3.8q-1.39,2.21-3,4.8a11.36,11.36,0,0,0-2,4.41q-1,3.4-1.7,6.5a27.87,27.87,0,0,0-.7,3.71,18.14,18.14,0,0,1-2.61,5.6q-2.4,3.21-4,3.21T2968.88,1492Z"/></g></g><g id="titleIcon"><g class="cls-7"><path class="cls-6" d="M2634,585.23a.88.88,0,0,1,.72-.74c.21,0,83.92-.07,124.93-.07h4.28a21.4,21.4,0,0,1,3,.21c1.11.17,2.21.19,3.31.34A84.87,84.87,0,0,1,2780.6,587c2.61.68,5.17,1.51,7.71,2.41a102.27,102.27,0,0,1,12,5.24c3.1,1.58,6.12,3.32,9.08,5.17a128.61,128.61,0,0,1,10.9,7.6c2.17,1.68,4.33,3.37,6.39,5.19,1.18,1,2.4,2.06,3.59,3.1.36.31.7.65,1.05,1,1.16,1.08,2.26,2.21,3.47,3.24a21.59,21.59,0,0,1,2.54,2.61c.87,1,1.79,2.08,2.69,3.11,2.58,2.94,4.92,6.06,7.21,9.23,2.44,3.38,4.66,6.91,6.77,10.51.88,1.5,1.73,3,2.53,4.57,1.65,3.18,3.27,6.39,4.67,9.7.76,1.79,1.5,3.6,2.2,5.42a126.55,126.55,0,0,1,5.32,17.57q1.23,5.32,2,10.73c.19,1.31.24,2.63.45,3.93.27,1.67.27,3.36.49,5,.13,1,.07,2.11.12,3.16s.1,1.9.16,2.84a36.57,36.57,0,0,1,0,4.91c-.06.89-.13,1.79-.16,2.68-.06,1.53-.06,3.06-.27,4.58s-.25,3-.43,4.41c-.2,1.62-.44,3.24-.7,4.86a121.68,121.68,0,0,1-2.69,12.37c-1,3.52-2.08,7-3.34,10.39-.82,2.23-1.71,4.44-2.65,6.62-1.47,3.39-3.06,6.72-4.83,10-1.24,2.27-2.53,4.5-3.87,6.72-1.77,2.94-3.68,5.79-5.68,8.57s-4.06,5.4-6.2,8c-.9,1.1-1.87,2.15-2.79,3.24-2.48,3-5.28,5.6-8,8.32-1.76,1.75-3.65,3.36-5.53,5-2.53,2.16-5.16,4.19-7.84,6.17a107.83,107.83,0,0,1-10.89,7c-1.61.91-3.22,1.81-4.85,2.68-2,1.1-4.18,2-6.3,3a99.28,99.28,0,0,1-10.36,3.91,83.46,83.46,0,0,1-12.31,2.92c-1.82.29-3.66.46-5.49.67a55.64,55.64,0,0,1-6.33.25h-64.6c-.82,0-1.1-.34-1.14-1.2,0-.42.34-188.38.37-188.9a3.26,3.26,0,0,1,.19-.76.75.75,0,0,1,.46-.41,2,2,0,0,1,.31-.07c.21,0,9.08,0,13.3,0,1.36,0,1.56.23,1.6,1.55,0,.37-.33,172.32-.29,172.9a.75.75,0,0,0,.63.62c.21,0,33.2.06,48.77.07a59,59,0,0,0,13.94-1.72,78.09,78.09,0,0,0,13.72-4.82,106.73,106.73,0,0,0,12.93-7,95.22,95.22,0,0,0,8.57-6q3.41-2.6,6.64-5.39a112.66,112.66,0,0,0,8.64-8.14c1.37-1.46,2.65-3,4-4.51,1.63-1.87,3.15-3.83,4.64-5.81a118.45,118.45,0,0,0,7.1-10.68,113.39,113.39,0,0,0,11.63-27.13c.74-2.7,1.4-5.42,1.93-8.17.51-2.58.94-5.19,1.2-7.81.16-1.53.34-3,.5-4.57,0-.52.07-1.05.08-1.58V705.35c0-.69-.1-1.37-.16-2,0-.21-.06-.42-.07-.63a43.59,43.59,0,0,0-.42-4.57c-.16-1.63-.43-3.24-.69-4.86a116.3,116.3,0,0,0-2.76-12.51c-.85-3-1.76-6.09-2.9-9-.76-2-1.49-4-2.32-5.9a107,107,0,0,0-5.14-10.69c-1-1.8-2-3.61-3.07-5.36a113.34,113.34,0,0,0-8-11.57c-1.94-2.44-3.94-4.82-6.09-7.08-1-1-1.9-2.13-2.93-3.1-1.84-1.74-3.7-3.47-5.61-5.13a106,106,0,0,0-13.19-9.56,80.8,80.8,0,0,0-13.55-6.84,79.27,79.27,0,0,0-16.16-4.43c-1.24-.2-2.51-.27-3.76-.47a43,43,0,0,0-5.21-.34,5.88,5.88,0,0,1-1-.06c-.89,0-1.79-.13-2.69-.14-7.6,0-108.24-.33-108.77-.29a.8.8,0,0,0-.64.62c0,.21-.07,246.33,0,247a.83.83,0,0,0,.71.74h111.48a25.61,25.61,0,0,0,4.11-.18,5.57,5.57,0,0,1,1,0,41.45,41.45,0,0,0,6-.44c2.09-.26,4.18-.61,6.25-1a99.7,99.7,0,0,0,15.38-4.31,113.38,113.38,0,0,0,11.06-4.72q6.12-3,11.92-6.57a141.13,141.13,0,0,0,13.21-9.28q3.42-2.68,6.68-5.57c1.78-1.58,3.57-3.14,5.22-4.85,1.33-1.36,2.71-2.67,4-4,1.44-1.54,2.83-3.14,4.24-4.71.45-.51.92-1,1.36-1.54a148.64,148.64,0,0,0,10.41-14c1.76-2.7,3.43-5.44,5-8.26,1.23-2.21,2.37-4.48,3.5-6.74s2-4.4,3-6.63q2.22-5.18,4-10.52c.79-2.41,1.52-4.83,2.16-7.28.8-3.07,1.56-6.14,2.15-9.25.64-3.37,1.22-6.75,1.58-10.17.16-1.52.36-3,.52-4.55,0-.42,0-.85.08-1.27s0-.84.06-1.26a50.11,50.11,0,0,0,.29-6.48,16.18,16.18,0,0,1,.15-2.69,13.48,13.48,0,0,0,0-2.84c-.07-.79-.11-1.58-.14-2.37v-3.33a18.47,18.47,0,0,0-.22-3.15q0-.32-.06-.63c-.28-4.16-.87-8.29-1.55-12.4a145.21,145.21,0,0,0-3.52-14.83q-1.38-5-3.23-9.94c-.82-2.22-1.66-4.44-2.57-6.64-.5-1.22-1-2.43-1.57-3.63-1.46-3.22-2.94-6.44-4.62-9.55q-3-5.57-6.4-10.93c-2.1-3.29-4.34-6.49-6.68-9.62-1.79-2.41-3.66-4.77-5.62-7-1.24-1.44-2.57-2.81-3.8-4.25s-2.43-2.64-3.69-3.92c-2.48-2.52-5.1-4.89-7.76-7.23-2.26-2-4.62-3.85-7-5.68a90.06,90.06,0,0,0-8.38-5.69c-3.29-2-6.64-3.92-10.1-5.61A115.88,115.88,0,0,0,2798,579a104.12,104.12,0,0,0-11.21-3.4,78.78,78.78,0,0,0-8.07-1.58c-2.4-.33-11.5-1.07-13.4-1.08-12.24,0-130.14-.61-130.61-.65a.83.83,0,0,1-.67-.6,6.17,6.17,0,0,1-.1-.62c0-.37,0-13.72.08-14.24a.83.83,0,0,1,.63-.64c.21,0,86.45-.08,128.57-.08h3.64c.79,0,1.58.09,2.37.15.58,0,1.16.08,1.74.1a30.52,30.52,0,0,1,3.31.25c1.84.19,3.67.43,5.49.7,1,.15,2,.28,3,.46a115,115,0,0,1,12.17,2.88c2.62.8,5.22,1.7,7.81,2.59,2.9,1,5.71,2.22,8.5,3.48,2.07.93,4.1,2,6.12,3,1.65.83,3.28,1.71,4.89,2.61,2.81,1.57,5.57,3.24,8.25,5s5.14,3.51,7.65,5.36c2.21,1.63,4.34,3.37,6.48,5.08,1.15.93,2.21,2,3.35,2.91,1.86,1.56,3.56,3.29,5.33,5,1.08,1,2.2,2,3.2,3.06.79.85,1.56,1.73,2.36,2.56,1.65,1.71,3.18,3.53,4.74,5.32,3,3.46,5.8,7.12,8.47,10.85,1.91,2.66,3.67,5.42,5.46,8.16,1.42,2.16,2.7,4.41,3.95,6.68,1.83,3.32,3.66,6.65,5.17,10.15.51,1.16,1.05,2.3,1.57,3.46a150.4,150.4,0,0,1,6.89,18.87,147.83,147.83,0,0,1,3.73,15.38c.52,2.75,1,5.51,1.39,8.27.2,1.25.3,2.52.44,3.77l.51,4.72a2.25,2.25,0,0,0,.06.63c.11,3.06.47,6.11.41,9.17a26.27,26.27,0,0,0,.15,3.32,16.3,16.3,0,0,1,0,2.21c0,.84-.11,1.69-.13,2.53,0,1.32,0,2.64-.07,4,0,.84-.11,1.68-.17,2.52,0,.26-.07.53-.07.79,0,1.75-.24,3.47-.4,5.21-.08.94-.19,1.88-.31,2.83-.53,4.13-1.16,8.25-2,12.34q-1.32,6.52-3.17,12.91c-.9,3.09-1.87,6.16-3,9.19-1,2.78-2.1,5.53-3.22,8.26-.48,1.17-1,2.33-1.52,3.48-1.2,2.64-2.39,5.29-3.76,7.85-2.24,4.19-4.59,8.32-7.15,12.32q-3.57,5.61-7.61,10.91c-2.11,2.76-4.33,5.45-6.61,8.09-1.21,1.39-2.51,2.71-3.73,4.09-2.71,3-5.62,5.87-8.53,8.71-1.66,1.62-3.4,3.15-5.17,4.66s-3.7,3.14-5.62,4.63c-1.59,1.22-3.17,2.46-4.79,3.63-1.85,1.32-3.72,2.6-5.61,3.86-2.82,1.86-5.73,3.58-8.67,5.24-2.67,1.51-5.4,2.88-8.16,4.21a106.89,106.89,0,0,1-10.35,4.37q-2.61,1-5.23,1.84a113.53,113.53,0,0,1-12.86,3.36c-2.32.48-4.67.86-7,1.18-1.36.18-2.73.29-4.09.43h-.48a29.59,29.59,0,0,1-4.89.28h-3.8c-42.28,0-128.21,0-128.89-.07a.83.83,0,0,1-.73-.72c0-.26-.06-.53-.08-.79C2633.9,863.65,2633.94,585.49,2634,585.23Z"/><path class="cls-6" d="M2663.69,617a1,1,0,0,1,1-1.12c.42,0,88.62-.38,93.42-.38h3a47.29,47.29,0,0,1,6.94.55,71.38,71.38,0,0,1,16.94,4.52,79.09,79.09,0,0,1,11.33,5.62,88.52,88.52,0,0,1,10.84,7.69,50.32,50.32,0,0,1,4,3.58c1.41,1.43,2.86,2.83,4.25,4.26a71.89,71.89,0,0,1,5.48,6.35c1.69,2.16,3.35,4.35,4.84,6.66s2.8,4.35,4,6.64c.56,1.07,1.17,2.12,1.71,3.21,1.67,3.35,3.13,6.8,4.47,10.3a107.75,107.75,0,0,1,4.55,15.32c.56,2.58,1,5.18,1.37,7.79a41.12,41.12,0,0,1,.46,4.57,5.21,5.21,0,0,0,0,.79,29.25,29.25,0,0,1,.26,4.58v5.7a30.49,30.49,0,0,1-.22,3.31c-.14,1.2-.23,2.41-.37,3.62-.29,2.31-.65,4.6-1.13,6.87a101.08,101.08,0,0,1-3,10.84q-1.49,4.43-3.41,8.69c-.69,1.54-1.41,3.07-2.14,4.59a89.15,89.15,0,0,1-4.89,8.69,118.13,118.13,0,0,1-8.4,11.7,124.68,124.68,0,0,1-9.64,10.26c-1.43,1.4-3,2.7-4.51,4-1.39,1.13-2.78,2.28-4.21,3.36-1.93,1.46-3.94,2.84-6,4.12-2.87,1.78-5.79,3.47-8.83,5a78.13,78.13,0,0,1-12,4.79,53.46,53.46,0,0,1-6.94,1.55c-1.57.24-3.14.41-4.71.58a14.08,14.08,0,0,1-1.59,0H2730a14.22,14.22,0,0,1-1.73-.07.82.82,0,0,1-.74-.72V790.9a5.27,5.27,0,0,1,.07-.79.85.85,0,0,1,.75-.7h29.14a17.75,17.75,0,0,0,3-.16,5.21,5.21,0,0,1,.79,0,36.27,36.27,0,0,0,9-1.54,55.25,55.25,0,0,0,9-3.48q2.83-1.4,5.54-3.06a79.22,79.22,0,0,0,6.65-4.58,66.46,66.46,0,0,0,6.13-5.24c.41-.4.85-.78,1.29-1.17A34.25,34.25,0,0,0,2802,767c.31-.36.62-.72.95-1.06,1.3-1.32,2.44-2.77,3.64-4.18a85.17,85.17,0,0,0,6.64-9.25c1-1.51,1.87-3.06,2.73-4.63a89,89,0,0,0,7.7-18.7,79.72,79.72,0,0,0,2.12-10.39,69.18,69.18,0,0,0,.55-11.05c0-.53-.07-1-.12-1.58,0-.31-.1-.63-.1-.94a46.6,46.6,0,0,0-.42-5c-.18-1.58-.44-3.14-.73-4.7a84.44,84.44,0,0,0-3.34-12.53c-.71-2-1.55-4-2.44-6-.58-1.3-1.15-2.61-1.82-3.87a84.41,84.41,0,0,0-7.87-12.41,82,82,0,0,0-6.65-7.64c-2.25-2.23-4.54-4.41-7-6.41-1.9-1.53-3.82-3-5.84-4.35-2.46-1.64-5-3.14-7.61-4.53a60.36,60.36,0,0,0-6.79-3,47.74,47.74,0,0,0-9.43-2.65,32.88,32.88,0,0,0-5.5-.56c-4.39,0-78.9.37-79.48.41a.77.77,0,0,0-.73.71,5.25,5.25,0,0,0-.06.79V835.41a5.16,5.16,0,0,1-.09.79.79.79,0,0,1-.66.6h-14.87a.77.77,0,0,1-.66-.6,2.6,2.6,0,0,1-.13-.78C2664.06,834.69,2663.67,617.5,2663.69,617Z"/><polygon class="cls-6" points="2585.76 968.36 2569.82 968.36 2569.82 1157.81 2526.26 1232.47 2540.03 1240.5 2585.76 1162.12 2585.76 968.36"/><polygon class="cls-6" points="2674.39 1176.24 2616.36 1149.91 2616.36 1132.96 2679.76 1161.56 3003.91 1162.84 3003.97 1146.9 2758.55 1145.93 2758.55 976.65 2904.57 976.65 2904.57 960.71 2758.55 960.71 2758.55 946.04 2904.16 946.04 2904.16 930.1 2758.55 930.1 2758.55 858.05 2742.61 858.05 2742.61 1145.87 2727.95 1145.81 2727.95 858.05 2712.01 858.05 2712.01 1145.74 2683.22 1145.63 2616.36 1115.48 2616.36 969 2600.41 969 2600.41 1164.77 2551.14 1249.04 2564.89 1257.09 2616.36 1169.09 2616.36 1167.41 2670.91 1192.16 3004.64 1193.45 3004.72 1177.5 2674.39 1176.24"/></g><path class="cls-6" d="M2622,576.23a.88.88,0,0,1,.72-.74c.21,0,83.92-.07,124.93-.07h4.28a21.4,21.4,0,0,1,3,.21c1.11.17,2.21.19,3.31.34A84.87,84.87,0,0,1,2768.6,578c2.61.68,5.17,1.51,7.71,2.41a102.27,102.27,0,0,1,12,5.24c3.1,1.58,6.12,3.32,9.08,5.17a128.61,128.61,0,0,1,10.9,7.6c2.17,1.68,4.33,3.37,6.39,5.19,1.18,1,2.4,2.06,3.59,3.1.36.31.7.65,1.05,1,1.16,1.08,2.26,2.21,3.47,3.24a21.59,21.59,0,0,1,2.54,2.61c.87,1,1.79,2.08,2.69,3.11,2.58,2.94,4.92,6.06,7.21,9.23,2.44,3.38,4.66,6.91,6.77,10.51.88,1.5,1.73,3,2.53,4.57,1.65,3.18,3.27,6.39,4.67,9.7.76,1.79,1.5,3.6,2.2,5.42a126.55,126.55,0,0,1,5.32,17.57q1.23,5.32,2,10.73c.19,1.31.24,2.63.45,3.93.27,1.67.27,3.36.49,5,.13,1,.07,2.11.12,3.16s.1,1.9.16,2.84a36.57,36.57,0,0,1,0,4.91c-.06.89-.13,1.79-.16,2.68-.06,1.53-.06,3.06-.27,4.58s-.25,3-.43,4.41c-.2,1.62-.44,3.24-.7,4.86a121.68,121.68,0,0,1-2.69,12.37c-1,3.52-2.08,7-3.34,10.39-.82,2.23-1.71,4.44-2.65,6.62-1.47,3.39-3.06,6.72-4.83,10-1.24,2.27-2.53,4.5-3.87,6.72-1.77,2.94-3.68,5.79-5.68,8.57s-4.06,5.4-6.2,8c-.9,1.1-1.87,2.15-2.79,3.24-2.48,3-5.28,5.6-8,8.32-1.76,1.75-3.65,3.36-5.53,5-2.53,2.16-5.16,4.19-7.84,6.17a107.83,107.83,0,0,1-10.89,7c-1.61.91-3.22,1.81-4.85,2.68-2,1.1-4.18,2-6.3,3a99.28,99.28,0,0,1-10.36,3.91,83.46,83.46,0,0,1-12.31,2.92c-1.82.29-3.66.46-5.49.67a55.64,55.64,0,0,1-6.33.25h-64.6c-.82,0-1.1-.34-1.14-1.2,0-.42.34-188.38.37-188.9a3.26,3.26,0,0,1,.19-.76.75.75,0,0,1,.46-.41,2,2,0,0,1,.31-.07c.21,0,9.08,0,13.3,0,1.36,0,1.56.23,1.6,1.55,0,.37-.33,172.32-.29,172.9a.75.75,0,0,0,.63.62c.21,0,33.2.06,48.77.07a59,59,0,0,0,13.94-1.72,78.09,78.09,0,0,0,13.72-4.82,106.73,106.73,0,0,0,12.93-7,95.22,95.22,0,0,0,8.57-6q3.41-2.6,6.64-5.39a112.66,112.66,0,0,0,8.64-8.14c1.37-1.46,2.65-3,4-4.51,1.63-1.87,3.15-3.83,4.64-5.81a118.45,118.45,0,0,0,7.1-10.68,113.39,113.39,0,0,0,11.63-27.13c.74-2.7,1.4-5.42,1.93-8.17.51-2.58.94-5.19,1.2-7.81.16-1.53.34-3,.5-4.57,0-.52.07-1.05.08-1.58V696.35c0-.69-.1-1.37-.16-2,0-.21-.06-.42-.07-.63a43.59,43.59,0,0,0-.42-4.57c-.16-1.63-.43-3.24-.69-4.86a116.3,116.3,0,0,0-2.76-12.51c-.85-3-1.76-6.09-2.9-9-.76-2-1.49-4-2.32-5.9a107,107,0,0,0-5.14-10.69c-1-1.8-2-3.61-3.07-5.36a113.34,113.34,0,0,0-8-11.57c-1.94-2.44-3.94-4.82-6.09-7.08-1-1-1.9-2.13-2.93-3.1-1.84-1.74-3.7-3.47-5.61-5.13a106,106,0,0,0-13.19-9.56,80.8,80.8,0,0,0-13.55-6.84,79.27,79.27,0,0,0-16.16-4.43c-1.24-.2-2.51-.27-3.76-.47a43,43,0,0,0-5.21-.34,5.88,5.88,0,0,1-1-.06c-.89,0-1.79-.13-2.69-.14-7.6,0-108.24-.33-108.77-.29a.8.8,0,0,0-.64.62c0,.21-.07,246.33,0,247a.83.83,0,0,0,.71.74h111.48a25.61,25.61,0,0,0,4.11-.18,5.57,5.57,0,0,1,1,0,41.45,41.45,0,0,0,6-.44c2.09-.26,4.18-.61,6.25-1a99.7,99.7,0,0,0,15.38-4.31,113.38,113.38,0,0,0,11.06-4.72q6.12-3,11.92-6.57a141.13,141.13,0,0,0,13.21-9.28q3.42-2.68,6.68-5.57c1.78-1.58,3.57-3.14,5.22-4.85,1.33-1.36,2.71-2.67,4-4,1.44-1.54,2.83-3.14,4.24-4.71.45-.51.92-1,1.36-1.54a148.64,148.64,0,0,0,10.41-14c1.76-2.7,3.43-5.44,5-8.26,1.23-2.21,2.37-4.48,3.5-6.74s2-4.4,3-6.63q2.22-5.18,4-10.52c.79-2.41,1.52-4.83,2.16-7.28.8-3.07,1.56-6.14,2.15-9.25.64-3.37,1.22-6.75,1.58-10.17.16-1.52.36-3,.52-4.55,0-.42,0-.85.08-1.27s0-.84.06-1.26a50.11,50.11,0,0,0,.29-6.48,16.18,16.18,0,0,1,.15-2.69,13.48,13.48,0,0,0,0-2.84c-.07-.79-.11-1.58-.14-2.37v-3.33a18.47,18.47,0,0,0-.22-3.15q0-.32-.06-.63c-.28-4.16-.87-8.29-1.55-12.4a145.21,145.21,0,0,0-3.52-14.83q-1.38-5-3.23-9.94c-.82-2.22-1.66-4.44-2.57-6.64-.5-1.22-1-2.43-1.57-3.63-1.46-3.22-2.94-6.44-4.62-9.55q-3-5.57-6.4-10.93c-2.1-3.29-4.34-6.49-6.68-9.62-1.79-2.41-3.66-4.77-5.62-7-1.24-1.44-2.57-2.81-3.8-4.25s-2.43-2.64-3.69-3.92c-2.48-2.52-5.1-4.89-7.76-7.23-2.26-2-4.62-3.85-7-5.68a90.06,90.06,0,0,0-8.38-5.69c-3.29-2-6.64-3.92-10.1-5.61A115.88,115.88,0,0,0,2786,570a104.12,104.12,0,0,0-11.21-3.4,78.78,78.78,0,0,0-8.07-1.58c-2.4-.33-11.5-1.07-13.4-1.08-12.24,0-130.14-.61-130.61-.65a.83.83,0,0,1-.67-.6,6.17,6.17,0,0,1-.1-.62c0-.37,0-13.72.08-14.24a.83.83,0,0,1,.63-.64c.21,0,86.45-.08,128.57-.08h3.64c.79,0,1.58.09,2.37.15.58,0,1.16.08,1.74.1a30.52,30.52,0,0,1,3.31.25c1.84.19,3.67.43,5.49.7,1,.15,2,.28,3,.46a115,115,0,0,1,12.17,2.88c2.62.8,5.22,1.7,7.81,2.59,2.9,1,5.71,2.22,8.5,3.48,2.07.93,4.1,2,6.12,3,1.65.83,3.28,1.71,4.89,2.61,2.81,1.57,5.57,3.24,8.25,5s5.14,3.51,7.65,5.36c2.21,1.63,4.34,3.37,6.48,5.08,1.15.93,2.21,2,3.35,2.91,1.86,1.56,3.56,3.29,5.33,5,1.08,1,2.2,2,3.2,3.06.79.85,1.56,1.73,2.36,2.56,1.65,1.71,3.18,3.53,4.74,5.32,3,3.46,5.8,7.12,8.47,10.85,1.91,2.66,3.67,5.42,5.46,8.16,1.42,2.16,2.7,4.41,3.95,6.68,1.83,3.32,3.66,6.65,5.17,10.15.51,1.16,1.05,2.3,1.57,3.46a150.4,150.4,0,0,1,6.89,18.87,147.83,147.83,0,0,1,3.73,15.38c.52,2.75,1,5.51,1.39,8.27.2,1.25.3,2.52.44,3.77l.51,4.72a2.25,2.25,0,0,0,.06.63c.11,3.06.47,6.11.41,9.17a26.27,26.27,0,0,0,.15,3.32,16.3,16.3,0,0,1,0,2.21c0,.84-.11,1.69-.13,2.53,0,1.32,0,2.64-.07,4,0,.84-.11,1.68-.17,2.52,0,.26-.07.53-.07.79,0,1.75-.24,3.47-.4,5.21-.08.94-.19,1.88-.31,2.83-.53,4.13-1.16,8.25-2,12.34q-1.32,6.52-3.17,12.91c-.9,3.09-1.87,6.16-3,9.19-1,2.78-2.1,5.53-3.22,8.26-.48,1.17-1,2.33-1.52,3.48-1.2,2.64-2.39,5.29-3.76,7.85-2.24,4.19-4.59,8.32-7.15,12.32q-3.57,5.61-7.61,10.91c-2.11,2.76-4.33,5.45-6.61,8.09-1.21,1.39-2.51,2.71-3.73,4.09-2.71,3-5.62,5.87-8.53,8.71-1.66,1.62-3.4,3.15-5.17,4.66s-3.7,3.14-5.62,4.63c-1.59,1.22-3.17,2.46-4.79,3.63-1.85,1.32-3.72,2.6-5.61,3.86-2.82,1.86-5.73,3.58-8.67,5.24-2.67,1.51-5.4,2.88-8.16,4.21a106.89,106.89,0,0,1-10.35,4.37q-2.61,1-5.23,1.84a113.53,113.53,0,0,1-12.86,3.36c-2.32.48-4.67.86-7,1.18-1.36.18-2.73.29-4.09.43h-.48a29.59,29.59,0,0,1-4.89.28h-3.8c-42.28,0-128.21,0-128.89-.07a.83.83,0,0,1-.73-.72c0-.26-.06-.53-.08-.79C2621.9,854.65,2621.94,576.49,2622,576.23Z"/><path class="cls-6" d="M2651.69,608a1,1,0,0,1,1-1.12c.42,0,88.62-.38,93.42-.38h3a47.29,47.29,0,0,1,6.94.55,71.38,71.38,0,0,1,16.94,4.52,79.09,79.09,0,0,1,11.33,5.62,88.52,88.52,0,0,1,10.84,7.69,50.32,50.32,0,0,1,4,3.58c1.41,1.43,2.86,2.83,4.25,4.26a71.89,71.89,0,0,1,5.48,6.35c1.69,2.16,3.35,4.35,4.84,6.66s2.8,4.35,4,6.64c.56,1.07,1.17,2.12,1.71,3.21,1.67,3.35,3.13,6.8,4.47,10.3a107.75,107.75,0,0,1,4.55,15.32c.56,2.58,1,5.18,1.37,7.79a41.12,41.12,0,0,1,.46,4.57,5.21,5.21,0,0,0,0,.79,29.25,29.25,0,0,1,.26,4.58v5.7a30.49,30.49,0,0,1-.22,3.31c-.14,1.2-.23,2.41-.37,3.62-.29,2.31-.65,4.6-1.13,6.87a101.08,101.08,0,0,1-3,10.84q-1.49,4.43-3.41,8.69c-.69,1.54-1.41,3.07-2.14,4.59a89.15,89.15,0,0,1-4.89,8.69,118.13,118.13,0,0,1-8.4,11.7,124.68,124.68,0,0,1-9.64,10.26c-1.43,1.4-3,2.7-4.51,4-1.39,1.13-2.78,2.28-4.21,3.36-1.93,1.46-3.94,2.84-6,4.12-2.87,1.78-5.79,3.47-8.83,5a78.13,78.13,0,0,1-12,4.79,53.46,53.46,0,0,1-6.94,1.55c-1.57.24-3.14.41-4.71.58a14.08,14.08,0,0,1-1.59,0H2718a14.22,14.22,0,0,1-1.73-.07.82.82,0,0,1-.74-.72V781.9a5.27,5.27,0,0,1,.07-.79.85.85,0,0,1,.75-.7h29.14a17.75,17.75,0,0,0,3-.16,5.21,5.21,0,0,1,.79,0,36.27,36.27,0,0,0,9-1.54,55.25,55.25,0,0,0,9-3.48q2.83-1.4,5.54-3.06a79.22,79.22,0,0,0,6.65-4.58,66.46,66.46,0,0,0,6.13-5.24c.41-.4.85-.78,1.29-1.17A34.25,34.25,0,0,0,2790,758c.31-.36.62-.72.95-1.06,1.3-1.32,2.44-2.77,3.64-4.18a85.17,85.17,0,0,0,6.64-9.25c1-1.51,1.87-3.06,2.73-4.63a89,89,0,0,0,7.7-18.7,79.72,79.72,0,0,0,2.12-10.39,69.18,69.18,0,0,0,.55-11.05c0-.53-.07-1-.12-1.58,0-.31-.1-.63-.1-.94a46.6,46.6,0,0,0-.42-5c-.18-1.58-.44-3.14-.73-4.7a84.44,84.44,0,0,0-3.34-12.53c-.71-2-1.55-4-2.44-6-.58-1.3-1.15-2.61-1.82-3.87a84.41,84.41,0,0,0-7.87-12.41,82,82,0,0,0-6.65-7.64c-2.25-2.23-4.54-4.41-7-6.41-1.9-1.53-3.82-3-5.84-4.35-2.46-1.64-5-3.14-7.61-4.53a60.36,60.36,0,0,0-6.79-3,47.74,47.74,0,0,0-9.43-2.65,32.88,32.88,0,0,0-5.5-.56c-4.39,0-78.9.37-79.48.41a.77.77,0,0,0-.73.71,5.25,5.25,0,0,0-.06.79V826.41a5.16,5.16,0,0,1-.09.79.79.79,0,0,1-.66.6h-14.87a.77.77,0,0,1-.66-.6,2.6,2.6,0,0,1-.13-.78C2652.06,825.69,2651.67,608.5,2651.69,608Z"/><polygon class="cls-6" points="2573.76 959.36 2557.82 959.36 2557.82 1148.81 2514.26 1223.47 2528.03 1231.5 2573.76 1153.12 2573.76 959.36"/><polygon class="cls-6" points="2662.39 1167.24 2604.36 1140.91 2604.36 1123.96 2667.76 1152.56 2991.91 1153.84 2991.97 1137.9 2746.55 1136.93 2746.55 967.65 2892.57 967.65 2892.57 951.71 2746.55 951.71 2746.55 937.04 2892.16 937.04 2892.16 921.1 2746.55 921.1 2746.55 849.05 2730.61 849.05 2730.61 1136.87 2715.95 1136.81 2715.95 849.05 2700.01 849.05 2700.01 1136.74 2671.22 1136.63 2604.36 1106.48 2604.36 960 2588.41 960 2588.41 1155.77 2539.14 1240.04 2552.89 1248.09 2604.36 1160.09 2604.36 1158.41 2658.91 1183.16 2992.64 1184.45 2992.72 1168.5 2662.39 1167.24"/><g class="cls-7"><polygon class="cls-6" points="3507.61 873.58 3507.61 802.94 3491.66 802.94 3491.66 873.58 3476.99 873.58 3476.99 802.94 3461.05 802.94 3461.05 873.58 3446.39 873.58 3446.39 802.94 3430.45 802.94 3430.45 873.58 3290.16 873.58 3290.16 889.52 3644.7 889.52 3644.7 873.58 3507.61 873.58"/><polygon class="cls-6" points="3290.16 918.21 3410.05 918.21 3410.05 1241.56 3369.05 1359.2 3384.09 1364.45 3425.99 1244.25 3425.99 918.21 3440.64 918.21 3440.64 1247.65 3398.99 1370.1 3414.09 1375.23 3456.59 1250.28 3456.59 918.21 3482.74 918.21 3483.36 1318.15 3448.93 1318.15 3448.93 1334.09 3499.32 1334.09 3498.68 918.21 3513.34 918.21 3513.34 1338.01 3507.14 1348.75 3449.57 1348.75 3449.57 1364.7 3516.36 1364.7 3529.28 1342.28 3529.28 918.21 3644.7 918.21 3644.7 902.27 3290.16 902.27 3290.16 918.21"/></g><g class="cls-7"><path class="cls-6" d="M3098.88,1272h-10.55l-9.86-9.22V1110.28h-15.93v159.36l19.48,18.23,128.42.31v-15.94l-67.61-.17V1155.55h59.91v-15.94h-59.91v-14.67h60.57V1109h-60.57v-32.11a122.73,122.73,0,0,0,36.84-16.94c25.54-17.52,39-42.56,39-72.42,0-24.89-6.13-59.22-35.36-81.35a82.65,82.65,0,0,0-36-15.82l-.5-.07h-90.1v15.94h89a69.08,69.08,0,0,1,28.63,13.13c18.89,14.63,28.48,37.58,28.48,68.21,0,24.55-10.67,44.4-31.7,59a107.58,107.58,0,0,1-32.4,15l-67.85-.62.56-126h67.08c4.87,1.18,34.34,10,34.34,51.33,0,36.29-33.46,45.61-38.8,46.86h-33.2l.58-83.47-15.94-.11-.69,99.52h50.88l.75-.14a75.84,75.84,0,0,0,26-11.48c12-8.36,26.38-24,26.38-51.18,0-29.83-12.88-46.49-23.69-55.22a59.72,59.72,0,0,0-24.28-11.92l-.72-.13h-84.56l-.7,157.68,44,.4Zm15.94,0V1077.22l12.12.11V1272Z"/><polygon class="cls-6" points="3049.14 1275.53 3049.14 1110.28 3033.2 1110.28 3033.2 1282.34 3067.3 1314.96 3211.11 1314.96 3211.11 1299.02 3073.7 1299.02 3049.14 1275.53"/></g><polygon class="cls-6" points="3499.61 863.58 3499.61 792.94 3483.66 792.94 3483.66 863.58 3468.99 863.58 3468.99 792.94 3453.05 792.94 3453.05 863.58 3438.39 863.58 3438.39 792.94 3422.45 792.94 3422.45 863.58 3282.16 863.58 3282.16 879.52 3636.7 879.52 3636.7 863.58 3499.61 863.58"/><polygon class="cls-6" points="3282.16 908.21 3402.05 908.21 3402.05 1231.56 3361.05 1349.2 3376.09 1354.45 3417.99 1234.25 3417.99 908.21 3432.64 908.21 3432.64 1237.65 3390.99 1360.1 3406.09 1365.23 3448.59 1240.28 3448.59 908.21 3474.74 908.21 3475.36 1308.15 3440.93 1308.15 3440.93 1324.09 3491.32 1324.09 3490.68 908.21 3505.34 908.21 3505.34 1328.01 3499.14 1338.75 3441.57 1338.75 3441.57 1354.7 3508.36 1354.7 3521.28 1332.28 3521.28 908.21 3636.7 908.21 3636.7 892.27 3282.16 892.27 3282.16 908.21"/><path class="cls-5" d="M3617.19,1329.24c-1.56,0-3.17-.07-4.85-.2-14.73-1.15-25.36-10.3-29.91-25.78a66,66,0,0,1-2.34-21.34l.08-.63,3.27-20.56,57.83,3.83-1.07,15.91-43.3-2.87-.93,5.83a49.6,49.6,0,0,0,1.86,15.66c3.59,11.78,10.72,13.67,15.77,14.06,12.53,1,22.35-3.18,29.19-12.37a44,44,0,0,0,7.07-15.11l2-29.84-62.17-4.64,1.19-15.9,77.94,5.82-3.12,46.69-.09.47a59,59,0,0,1-9.61,21.45C3649.4,1318.83,3637.43,1329.24,3617.19,1329.24Z"/><path class="cls-5" d="M3672.76,1230.67l-82.41-3.83L3568.4,1150l-.06-.81a134.34,134.34,0,0,1,3.19-37.18c8.06-33.71,27.62-43.4,42.62-45.59,14.57-2.12,27.47,1.16,38.34,9.75,26.51,21,30.8,66.65,31,68.59l.09,1-9.23,54.89-60-2.43-15.1-56.07-.06-.71c-.23-2.6-1.87-25.71,9.09-37.22a20.9,20.9,0,0,1,16.37-6.5c10.43.4,18.81,9.12,24.88,25.9a133.31,133.31,0,0,1,5.64,21.63l.21,1.28-4.68,28.06-15.73-2.62,4.25-25.47c-2.92-16.87-10.17-32.66-15.18-32.85a5,5,0,0,0-4.21,1.57c-4.58,4.78-5.21,17.91-4.81,24.2l11.67,43.35,34.32,1.39,6.55-39c-.72-6.2-5.6-41.32-24.9-56.55-7.39-5.84-15.94-8-26.13-6.46-14.64,2.13-24.51,13.31-29.34,33.2a121,121,0,0,0-2.92,31.86l18.34,64.19,71,3.3Z"/><rect class="cls-5" x="3612.64" y="1283.29" width="15.94" height="21.55" transform="translate(2087.59 4820.15) rotate(-86.17)"/><path class="cls-5" d="M3274.87,1254.59a39.2,39.2,0,0,1-5.09-.33c-15.82-2-27.75-11.4-34.54-27.16a69.19,69.19,0,0,1-5.29-22.26v-1.1l5.57-23.12,53.21,10-2.93,15.67-38.33-7.2-1.48,6.14c.46,5.4,3.77,30.41,25.84,33.22,8.18,1,14.79-2.12,20.19-9.67a46.24,46.24,0,0,0,6.3-13.06l2.66-32.41-62-12,3-15.65,76,14.67-4,48-.14.61a61.9,61.9,0,0,1-8.63,18.61C3297.43,1248.79,3287.06,1254.59,3274.87,1254.59Z"/><path class="cls-5" d="M3317.81,1162.36l-78.92-17.59,6.7-72,.3-.88c1.12-3.34,28.15-81.67,78.19-74.44,14.74,2.13,25.88,9,33.14,20.3,17.51,27.37,4.7,71.45,4.15,73.31l-.38,1.27L3329.24,1137l-58.35-13.65,3.08-45.45.36-1c1.41-4.07,14.35-40,33.39-48.11a20.47,20.47,0,0,1,17,.12c6.71,3.08,14.29,11.18,12.26,32.32a113,113,0,0,1-4.16,20.68l-.5,1.61-20.25,23-12-10.55,18-20.38c3.9-13.45,4.78-29.94,0-32.14a4.6,4.6,0,0,0-4.09,0c-8.79,3.75-19.29,23.94-24.25,37.69l-2,29.77,34.74,8.09,24-33.74c1.77-6.71,9.6-39.92-2.64-59-4.71-7.34-11.9-11.62-22-13.08-14.87-2.15-29.44,7.41-43.31,28.41a176,176,0,0,0-17.2,34.52l-5.23,56.08,65.22,14.54Z"/><rect class="cls-5" x="3262.18" y="1206.75" width="15.94" height="24.39" transform="translate(1417.51 4176.56) rotate(-78.38)"/><path class="cls-6" d="M3090.88,1262h-10.55l-9.86-9.22V1100.28h-15.93v159.36l19.48,18.23,128.42.31v-15.94l-67.61-.17V1145.55h59.91v-15.94h-59.91v-14.67h60.57V1099h-60.57v-32.11a122.73,122.73,0,0,0,36.84-16.94c25.54-17.52,39-42.56,39-72.42,0-24.89-6.13-59.22-35.36-81.35a82.65,82.65,0,0,0-36-15.82l-.5-.07h-90.1v15.94h89a69.08,69.08,0,0,1,28.63,13.13c18.89,14.63,28.48,37.58,28.48,68.21,0,24.55-10.67,44.4-31.7,59a107.58,107.58,0,0,1-32.4,15l-67.85-.62.56-126h67.08c4.87,1.18,34.34,10,34.34,51.33,0,36.29-33.46,45.61-38.8,46.86h-33.2l.58-83.47-15.94-.11-.69,99.52h50.88l.75-.14a75.84,75.84,0,0,0,26-11.48c12-8.36,26.38-24,26.38-51.18,0-29.83-12.88-46.49-23.69-55.22a59.72,59.72,0,0,0-24.28-11.92l-.72-.13h-84.56l-.7,157.68,44,.4Zm15.94,0V1067.22l12.12.11V1262Z"/><polygon class="cls-6" points="3041.14 1265.53 3041.14 1100.28 3025.2 1100.28 3025.2 1272.34 3059.3 1304.96 3203.11 1304.96 3203.11 1289.02 3065.7 1289.02 3041.14 1265.53"/><g id="track"><path class="cls-5" d="M3309.46,1380.2s-35.59-10.67-57.5,23.92-20.32,49.23-20.32,49.23l42.88,21s20.34-15.47,34.93-34S3331.47,1392.19,3309.46,1380.2Z"/><path class="cls-5" d="M3225.28,1469.09l40.21,19.4s-11,54.46-40,37.3C3197,1508.92,3225.28,1469.09,3225.28,1469.09Z"/><path class="cls-5" d="M3346.76,1656s-3.65-42.75,1.33-58.42,20.39-48.81,46.33-39.23,27.46,42.32,20.29,64.83-23.94,50.8-23.94,50.8Z"/><path class="cls-5" d="M3337.65,1671.2l47.57,20.18s-8.1,47.15-46.32,41.44S3337.65,1671.2,3337.65,1671.2Z"/><path class="cls-5" d="M3158.48,1608.21s-23.19-23.92-55.49-6.42-37.44,29.67-37.44,29.67l24.38,35.22s22.69-3.22,42.21-11.33S3170.47,1627.23,3158.48,1608.21Z"/><path class="cls-5" d="M3053.68,1641l23,32.79s-32.4,37.85-47.62,11.72C3014.06,1659.82,3053.68,1641,3053.68,1641Z"/><path class="cls-5" d="M3067.86,1823.9s22.12-31.73,34.62-39.71,42.3-22,54.73-.46-5.38,45.16-23.34,56.63-45.9,21.38-45.9,21.38Z"/><path class="cls-5" d="M3052.76,1829.2l21.32,41.42s-32.82,28-56,2S3052.76,1829.2,3052.76,1829.2Z"/><path class="cls-5" d="M2888.11,1736.26s-10.51-23.39-38.8-19.93S2814,1727,2814,1727l8.35,31.73s17.43,4,33.87,3.67S2891.74,1753.08,2888.11,1736.26Z"/><path class="cls-5" d="M2802.72,1730.48l8,29.63s-33.85,17.87-37.92-4.89C2768.76,1732.86,2802.72,1730.48,2802.72,1730.48Z"/><path class="cls-5" d="M2722.88,1855.36s19.43-19,29.2-22.81,32.5-9.66,38.7,6.83-9.21,30.38-23.26,35.93-35,8.73-35,8.73Z"/><path class="cls-5" d="M2711.58,1857l10.09,31.3s-26.52,15-39.78-5.94S2711.58,1857,2711.58,1857Z"/></g></g><g id="title"><path class="cls-6" d="M493.83,1122.54a173,173,0,0,1,27.57-2.16c18.57,0,31.87,4.4,40.65,12.6,9,8.13,14.2,19.75,14.2,35.9,0,16.45-5.14,29.76-14.43,39-9.48,9.34-25,14.46-44.42,14.46a208.27,208.27,0,0,1-23.57-1.12Zm13,88.75a92.49,92.49,0,0,0,13,.61c27.77.07,42.72-15.4,42.72-42.53.16-23.69-13.24-38.65-40.57-38.65a77.21,77.21,0,0,0-15.18,1.33Z"/><path class="cls-6" d="M593,1122.54a172.09,172.09,0,0,1,27.58-2.16c18.56,0,31.86,4.4,40.64,12.6,9,8.13,14.2,19.75,14.2,35.9,0,16.45-5.13,29.76-14.43,39-9.48,9.34-25,14.46-44.42,14.46a208.27,208.27,0,0,1-23.57-1.12Zm13,88.75a92.49,92.49,0,0,0,13,.61c27.77.07,42.73-15.4,42.73-42.53.15-23.69-13.25-38.65-40.58-38.65a77.21,77.21,0,0,0-15.18,1.33Z"/><path class="cls-6" d="M692.06,1122.54a171.87,171.87,0,0,1,27.57-2.16c18.56,0,31.87,4.4,40.64,12.6,9,8.13,14.21,19.75,14.21,35.9,0,16.45-5.14,29.76-14.43,39-9.48,9.34-25,14.46-44.42,14.46a208.27,208.27,0,0,1-23.57-1.12Zm13,88.75a92.49,92.49,0,0,0,13,.61c27.77.07,42.73-15.4,42.73-42.53.16-23.69-13.25-38.65-40.57-38.65a77.31,77.31,0,0,0-15.19,1.33Z"/><path class="cls-6" d="M798.77,1187.86c.26,17.7,11.49,25,24.63,25,9.37,0,15.1-1.68,19.94-3.68l2.3,9.29c-4.58,2.1-12.59,4.59-24,4.59-22.12,0-35.42-14.73-35.42-36.33,0-21.82,12.85-38.85,33.87-38.85,23.48,0,29.63,20.6,29.63,33.85a33.22,33.22,0,0,1-.45,6.14Zm38.31-9.42c.13-8.25-3.37-21.19-18-21.19-13.37,0-19.06,12.08-20.1,21.19Z"/><path class="cls-6" d="M864.16,1208.16a35.67,35.67,0,0,0,17.35,5.13c9.56,0,14-4.7,14-10.72,0-6.3-3.81-9.6-13.39-13.18-13-4.71-19.15-11.79-19.11-20.42,0-11.59,9.41-21.1,24.9-21.1a35,35,0,0,1,17.63,4.42l-3.25,9.52a28.25,28.25,0,0,0-14.77-4.24c-7.73,0-11.93,4.46-11.93,9.88,0,6,4.24,8.62,13.67,12.28,12.4,4.62,18.85,10.88,18.89,21.63,0,12.76-9.91,21.69-26.92,21.69a41,41,0,0,1-20.23-5Z"/><path class="cls-6" d="M939.59,1129.15a7.9,7.9,0,0,1-7.63,8.15c-.23,0-.47,0-.7,0a7.8,7.8,0,0,1-7.91-7.69c0-.15,0-.3,0-.45a8,8,0,0,1,7.85-8.14h.29a7.84,7.84,0,0,1,8.09,7.58ZM925,1221.49v-72h13v72Z"/><path class="cls-6" d="M1021.91,1149.5c-.36,5.09-.61,10.94-.61,19.7V1211c0,16.67-3.4,26.65-10.28,33-7.07,6.48-17.14,8.64-26.22,8.64-8.71,0-18.19-2-24-5.93l3.28-10.07a40.5,40.5,0,0,0,21.19,5.76c13.36,0,23.18-7,23.18-25.22v-8h-.3c-3.93,6.76-11.78,12.12-22.87,12.12-18,0-30.69-15.26-30.69-35.21,0-24.41,15.87-38.16,32.5-38.16,12.49,0,19.25,6.42,22.45,12.41h.3l.55-10.78Zm-13.62,28.32a20.35,20.35,0,0,0-.73-5.86c-2.41-7.62-8.73-13.93-18.38-13.93-12.49,0-21.45,10.56-21.45,27.29,0,14.09,7.28,25.93,21.32,25.93a19.18,19.18,0,0,0,18.21-13.5,23.7,23.7,0,0,0,1-7Z"/><path class="cls-6" d="M1042.06,1169c0-7.52-.24-13.48-.59-19.45h11.59l.72,11.84h.36c3.54-6.76,11.92-13.47,23.8-13.47,9.89,0,25.37,6,25.37,30.68v42.94h-13V1180c0-11.63-4.39-21.38-16.64-21.38-8.59,0-15.29,6.11-17.64,13.44a20.48,20.48,0,0,0-.91,6.07v43.38h-13Z"/><path class="cls-6" d="M1169.7,1132.11h-30.56v-11h74.29v11h-30.71v89.38h-13Z"/><path class="cls-6" d="M1246.83,1221.49l-25.43-100.33h13.74l11.93,50.77c2.9,12.55,5.58,25,7.36,34.68h.35c1.63-10,4.78-21.93,8.16-34.83l13.47-50.62h13.43l12.27,50.84c2.81,12,5.49,23.84,7,34.41h.32c2-11,4.79-22.17,7.91-34.66l13.27-50.59h13.32l-28.47,100.33h-13.53l-12.63-52.2a295.67,295.67,0,0,1-6.63-32.82h-.31a279.39,279.39,0,0,1-7.72,32.8l-14.2,52.22Z"/><path class="cls-6" d="M1458.06,1218.27c-4.68,2.36-14.28,4.78-26.51,4.78-28.26,0-49.45-17.88-49.45-50.81,0-31.49,21.22-52.64,52.36-52.64,12.4,0,20.4,2.63,23.81,4.42l-3.21,10.54a47.73,47.73,0,0,0-20.18-4.13c-23.57,0-39.14,15-39.14,41.39,0,24.55,14.15,40.23,38.44,40.23,8,0,16-1.6,21.25-4.11Z"/><path class="cls-6" d="M1537.43,1184.8c0,26.66-18.49,38.33-35.79,38.33-19.54,0-34.61-14.23-34.61-37.09,0-24.09,15.83-38.17,35.75-38.17C1523.47,1147.87,1537.43,1162.88,1537.43,1184.8Zm-57.08.84c0,15.79,9,27.68,21.83,27.68,12.55,0,21.93-11.73,21.93-28.07,0-12.18-6.14-27.57-21.7-27.57-15.35,0-22.06,14.31-22.06,28Z"/><path class="cls-6" d="M1554,1169c0-7.52-.24-13.48-.59-19.45H1565l.72,11.84h.36c3.54-6.76,11.92-13.47,23.81-13.47,9.88,0,25.36,6,25.36,30.68v42.94h-13V1180c0-11.63-4.39-21.38-16.64-21.38-8.59,0-15.29,6.11-17.64,13.44a20.15,20.15,0,0,0-.9,6.07v43.38h-13Z"/><path class="cls-6" d="M1637.88,1221.49v-62.07h-10v-9.92h10V1146c0-10.15,2.32-19.33,8.36-25.22a25.12,25.12,0,0,1,17.5-6.64,28.4,28.4,0,0,1,11.19,2.11l-1.73,10a20,20,0,0,0-8.41-1.64c-11,0-14,9.81-14,20.92v3.89h17.39v9.92h-17.32v62.07Z"/><path class="cls-6" d="M1685.46,1187.86c.26,17.7,11.49,25,24.64,25,9.36,0,15.09-1.68,19.93-3.68l2.3,9.29c-4.58,2.1-12.58,4.59-24,4.59-22.12,0-35.42-14.73-35.42-36.33,0-21.82,12.85-38.85,33.87-38.85,23.49,0,29.63,20.6,29.63,33.85a33.22,33.22,0,0,1-.45,6.14Zm38.32-9.42c.13-8.25-3.38-21.19-18.07-21.19-13.36,0-19,12.08-20.1,21.19Z"/><path class="cls-6" d="M1752.68,1171.92c0-8.5-.21-15.74-.59-22.42h11.47l.5,14.12h.47c3.36-9.65,11.3-15.75,20-15.75a14.91,14.91,0,0,1,3.64.37v12.31a20.8,20.8,0,0,0-4.45-.38c-9.23,0-15.75,7-17.52,16.75a33.84,33.84,0,0,0-.53,6.11v38.46h-13Z"/><path class="cls-6" d="M1807.22,1187.86c.26,17.7,11.49,25,24.63,25,9.37,0,15.1-1.68,19.94-3.68l2.3,9.29c-4.58,2.1-12.58,4.59-24,4.59-22.12,0-35.42-14.73-35.42-36.33,0-21.82,12.85-38.85,33.87-38.85,23.48,0,29.63,20.6,29.63,33.85a33.22,33.22,0,0,1-.45,6.14Zm38.32-9.42c.13-8.25-3.38-21.19-18.07-21.19-13.37,0-19.06,12.08-20.09,21.19Z"/><path class="cls-6" d="M1874.47,1169c0-7.52-.25-13.48-.6-19.45h11.57l.72,11.84h.37c3.53-6.76,11.91-13.47,23.8-13.47,9.89,0,25.37,6,25.37,30.68v42.94h-13V1180c0-11.63-4.38-21.38-16.64-21.38-8.59,0-15.29,6.11-17.64,13.44a20.15,20.15,0,0,0-.9,6.07v43.38h-13Z"/><path class="cls-6" d="M2008.41,1218.88a49.8,49.8,0,0,1-20.67,4.17c-21.7,0-35.92-14.77-35.92-36.78,0-22.19,15.14-38.38,38.69-38.38,7.71,0,14.66,2,18.18,3.83l-2.91,10.06a31.64,31.64,0,0,0-15.31-3.46c-16.42,0-25.42,12.31-25.39,27.26,0,16.68,10.72,26.94,25.08,26.94a38,38,0,0,0,16-3.46Z"/><path class="cls-6" d="M2030.2,1187.86c.25,17.7,11.48,25,24.63,25,9.37,0,15.1-1.68,19.94-3.68l2.29,9.29c-4.59,2.1-12.59,4.59-24,4.59-22.11,0-35.42-14.73-35.42-36.33,0-21.82,12.85-38.85,33.88-38.85,23.47,0,29.62,20.6,29.62,33.85a33.22,33.22,0,0,1-.45,6.14Zm38.31-9.42c.12-8.25-3.38-21.19-18.07-21.19-13.36,0-19,12.08-20.1,21.19Z"/><path class="cls-6" d="M2124.73,1221.49v-8l10.29-10c24.68-23.55,35.93-36.12,36-50.7,0-9.83-4.67-18.94-19.08-18.94-8.84,0-16.08,4.54-20.58,8.19l-4.17-9.16a42.48,42.48,0,0,1,27.37-9.84c20.81,0,29.56,14.3,29.56,28.07,0,18-13,32.41-33.32,52l-7.65,7.23v.3h43.35v10.84Z"/><path class="cls-6" d="M2265.52,1172.13c0,32.82-12.29,51-33.66,51-18.89,0-31.74-17.7-32.05-49.66,0-32.52,14-50.37,33.67-50.37C2253.87,1123.1,2265.52,1141.36,2265.52,1172.13ZM2213,1173.5c0,25.23,7.74,39.47,19.63,39.47,13.35,0,19.73-15.61,19.73-40.25,0-23.88-6-39.43-19.63-39.43C2221.31,1133.29,2213,1147.28,2213,1173.5Z"/><path class="cls-6" d="M2277.45,1221.49v-8l10.27-10c24.7-23.55,36-36.12,36-50.7,0-9.83-4.66-18.94-19.07-18.94-8.84,0-16.09,4.54-20.59,8.19l-4.17-9.16a42.52,42.52,0,0,1,27.38-9.84c20.81,0,29.55,14.3,29.55,28.07,0,18-13,32.41-33.31,52l-7.66,7.23v.3h43.36v10.84Z"/><path class="cls-6" d="M2382.3,1136.89H2382l-16.8,9.07-2.51-10,21.13-11.27h11.11v96.75H2382.3Z"/><g class="cls-4"><path class="cls-6" d="M431.87,936.58H419.49q.9-19.73,13.1-31.67A40.68,40.68,0,0,1,462.11,893q17.31,0,28.71,11.21a36.94,36.94,0,0,1,11.4,27.37,41.34,41.34,0,0,1-6.37,22.25Q489.48,964,476.55,978l-32.12,34.63H504v12.38H416.44l49.17-53.11q12.92-14,18.48-22.08a31.76,31.76,0,0,0,5.56-18.48q0-10.41-8.16-18.3t-20.28-7.9q-12.1,0-20.1,8.16T431.87,936.58Z"/><path class="cls-6" d="M577.4,1028.28q-20.82,0-32-17.14t-11.21-50.51q0-33.37,11.21-50.52T577.22,893q20.64,0,32.75,17.49t12.12,50.16q0,32.67-12.21,50.16T577.4,1028.28Zm.36-123.1q-14.89,0-23.15,14.36T546.36,961q0,55.63,31.4,55.63,15.25,0,23.78-14.63t8.52-41.36q0-26.73-8.79-41.09T577.76,905.18Z"/><path class="cls-6" d="M666.59,936.58H654.2q.9-19.73,13.1-31.67A40.71,40.71,0,0,1,696.82,893q17.32,0,28.72,11.21a37,37,0,0,1,11.39,27.37,41.26,41.26,0,0,1-6.37,22.25Q724.19,964,711.27,978l-32.12,34.63h59.58v12.38H651.15l49.17-53.11q12.93-14,18.49-22.08a31.83,31.83,0,0,0,5.56-18.48q0-10.41-8.17-18.3t-20.27-7.9q-12.12,0-20.1,8.16T666.59,936.58Z"/><path class="cls-6" d="M796.33,896.21h25.3v128.84H808.89V908.77H788.61Z"/><path class="cls-6" d="M932.53,909.49q22.43,16.32,32.12,26.56l-11.13,10.76q-8.61-12.37-26.2-27.09a322.33,322.33,0,0,1-30.5,46.65,32.28,32.28,0,0,0-10.23-9.69,149.18,149.18,0,0,0,36.6-66.39,78.09,78.09,0,0,0,16.33,7q2.34.72,2.34,1.62c0,.6-.87,1.44-2.6,2.51S935.28,905.18,932.53,909.49Zm-9,98.87L939.88,984H916.73a153.3,153.3,0,0,0-21.89,1.61V971q9,1.26,33.92,1.25T963,971L932.17,1017q11.66,12,17.05,20.63l-12.57,8.08q-14.89-26.39-37.32-41.1l9.87-9.33Q915.65,1000.65,923.55,1008.36Zm19.38-45.94-14,6.29q-2.88-9.69-13.46-21l10.77-7.36A95,95,0,0,1,942.93,962.42Zm39.12,53.84a62.94,62.94,0,0,0,12,7.36c1.79.84,2.69,1.67,2.69,2.51s-1,1.38-3.14,1.61-6.25,2.82-12.47,7.72A267.13,267.13,0,0,1,958.73,1052q-4.5-5.57-13.28-9Q967.51,1031.87,982.05,1016.26Zm11.67-104.08q-21.54,0-35.89,1.43V898.9q14.17,1.44,46.39,1.44T1051,898.9v14.71q-16.32-1.43-41.27-1.43-2.52,7.53-4.85,16.87,27.28,0,35.36-1.44-.9,10-.9,18.84v50.43a160.45,160.45,0,0,0,.9,18.84q-8.81-1.25-38.32-1.25t-35.8,1.25q.9-9.15.9-18.84V946.45q0-9.69-.9-18.84,7.36,1.26,24.95,1.44A120.17,120.17,0,0,0,993.72,912.18Zm32.66,41.45v-14H979.72v14Zm0,25.12V964.22H979.72v14.53Zm0,24.77v-14.9H979.72v14.9Zm25.48,37.5-10.95,11.13a119.3,119.3,0,0,0-34.63-26.74l8.43-10.23A290.66,290.66,0,0,1,1051.86,1041Z"/><path class="cls-6" d="M1118.62,1008.72q10.39-4.85,15.25-7.71a27.18,27.18,0,0,0-.72,6.28,22.64,22.64,0,0,0,1.44,7.35q-21.18,8.08-42.35,23.87a46.11,46.11,0,0,0-6.1-16.69q8.07-2.87,20.09-7.71V956.32a91.3,91.3,0,0,0-17.58,1.62V942.68a95.48,95.48,0,0,0,17.58,1.62q0-30.51-1.61-47.55a64.56,64.56,0,0,0,15.61,1.79c1.55,0,2.33.33,2.33,1s-.65,1.34-2,2.06-2,2.15-2,4.31v38.22a119,119,0,0,0,16.33-1.44v15.26a119,119,0,0,0-16.33-1.44Zm67.65.9a26.25,26.25,0,0,0-.72,6.37,20.34,20.34,0,0,0,1.44,7.27q-28.73,7.71-48.81,18.3a56,56,0,0,0-5.57-15.61Q1155.77,1022.91,1186.27,1009.62Zm5-80q-39.3,0-57.06,1.79V916q18.48,1.6,56.53,1.61l-1.62-27.81a50.05,50.05,0,0,0,12.2,1.43l5.39-.18c1.07,0,1.61.24,1.61.72s-.66,1.44-2,2.87q-2.52,3.06-3,23,23.51-.18,38.94-1.61v15.43q-14-1.26-38.58-1.79,2.33,50.42,7.17,67.47a203.77,203.77,0,0,0,9.87-51.32q8.79,3.76,14.54,4.48c1.31.12,2,.45,2,1s-.71,1.29-2.15,2.24q-1.44.9-3.41,10.77-6.47,32.47-14.54,47.55,9.7,17.24,13.28,17.23t5-16.33q5.57,9.51,13.64,12a186.87,186.87,0,0,1-7.81,19.29q-3,5.83-6.46,5.84t-11.48-7.81a77.62,77.62,0,0,1-13.73-18.21,136.38,136.38,0,0,1-24,26.55q-7.36-7-13.46-9.15,21.18-13.1,31.41-29.43a134.51,134.51,0,0,1-8-31Q1192.9,963,1191.29,929.59Zm-38,65.85v11.49h-14.18a116.47,116.47,0,0,0,2.16-20.46V963.14a160.35,160.35,0,0,0-1.08-19.74q7.35,1.26,22.52,1.26t22-1.26q-1.44,7-1.43,19.74v23.15a142,142,0,0,0,1.43,18.48H1171.2v-9.33Zm18-11.48V956.14h-18V984Zm65.67-78.78-12,9.15a84.46,84.46,0,0,0-10.77-14.17l12.21-7.72A153.93,153.93,0,0,1,1236.87,905.18Z"/><path class="cls-6" d="M1297.53,999.75q-2,15.79-4.67,29.61l-11.66-.18a107.43,107.43,0,0,0,5.56-29.61Zm33.73-72.32q7.9,0,18-.9v13.28q-10.05-.88-18-.89v14.35q9.16,0,18.85-.89v12.74q-9.69-.9-18.85-.9V978.4a172.34,172.34,0,0,0,22.61-1.26q-.9,3.95-.89,13.1-.18,35.71-1.35,43.25a17.05,17.05,0,0,1-6.55,11.57q-5.38,4-17.76,6.73,0-6.64-7.72-14.53,14.89.16,18.21-2.7t3.32-24.4q0-9-.71-20.82h-30.33q-15.79,0-21.18.72,1.08-12.73,1.08-43.88t-.9-45.84q11.31,1.06,32.48,1.07t30.51-1.07v13.81a173.71,173.71,0,0,0-20.82-1.07Zm-20.09,98.16-11.13.72q.54-7.17.54-13.73t-.18-12.29l9.69-.54Q1311.17,1013.39,1311.17,1025.59Zm-8.62-98h16.87V913.08h-16.87Zm16.87,11.13h-16.87v14.71h16.87Zm0,39.66V964h-16.87V978.4Zm5.74,45.4-10.94,1.25c.11-2.63.18-6,.18-10.23a130.85,130.85,0,0,0-1.08-15.25l9-.18A239.24,239.24,0,0,1,1325.16,1023.8Zm12.74-.72-10.4.72a183.14,183.14,0,0,0-2.34-24.95l9.51-.54A167.22,167.22,0,0,1,1337.9,1023.08Zm109.11,23q-6.46-1.8-44.59-1.8t-44.78,1.8q.72-12.75.72-26V926.35q0-16.86-.72-24.94,6.1,1.8,42.26,1.8t42.44-1.8v15.25q-6.63-1.6-34.81-1.61h-36.07v117.54h37q31.39,0,38.58-1.62Zm-40.74-24.59q-5.74-.36-16.24-.36c-7,0-11.21.07-12.65.18q.18-2.14.18-9.15V984.32q0-7-.18-9.33,2,.36,12.56.35t16.33-.35c-.12,1.55-.17,4.66-.17,9.33v27.81C1406.1,1016.68,1406.15,1019.79,1406.27,1021.46Zm25.13-57.78q-4.49-.18-24.14-.18t-23.6.18q.36-5,.36-9.15V935.87q0-4.12-.36-9.34,7.54.54,20,.54t27.73-.54c-.24,3.59-.36,6.71-.36,9.34v18.66Q1431,958.66,1431.4,963.68Zm-35.35,47.55V984.68h-8.26v26.55Zm22.43-58.14V938h-22.43v15.07Zm22.79,68.55q-6.46-.36-17.32-.36c-7.24,0-11.64.07-13.19.18q.18-2.15.18-9.15v-28q0-7-.18-9.33a128.3,128.3,0,0,0,13.1.35q11,0,17.41-.35-.36,5.38-.36,9.33v28A78.5,78.5,0,0,0,1441.27,1021.64ZM1431,1011.23V984.68h-9.51v26.55Z"/><path class="cls-6" d="M1535.84,1025.77q22.25-1.44,32.3-3.59a32.57,32.57,0,0,0-.72,6.28c0,1.8.06,3.29.18,4.49q-77.52,7-82.37,10.41a54.52,54.52,0,0,0-4.48-15.8q17.22.54,42.71-1.07v-10.77q-22.62,0-35.89,1.26v-12.92q13.64,1.26,35.89,1.25V995.8q-25.85.18-30.69.9.72-7.35.72-18.48V961.53q0-14-.72-18.49,7.71.72,30.69,1.08v-8.43q-26.57,0-40.56,1.25V924q14.17,1.26,40.56,1.26V914.87q-18.49,1.62-32,2-.36-5.19-5.2-12.2a172.62,172.62,0,0,0,17.5.72,282.62,282.62,0,0,0,29.25-2.06q18.57-2.07,27.9-5.84a99.92,99.92,0,0,0,8.61,11.85,4.35,4.35,0,0,1,1.08,2.15c0,1-.75,1.29-2.24,1a28.93,28.93,0,0,0-5.56-.45q-3.33,0-27,2v11.31q20.46-.18,33.2-1.26v12.92q-12.75-1.08-33.2-1.25v8.43q23.51,0,31.76-1.08-.72,7.37-.72,18.49v16.69q0,11.13.72,18.48-9.33-.9-31.76-.9v9.51q19-.16,32.48-1.25V1017q-13.46-1.08-32.48-1.26Zm-12.38-60.12V954.53h-17.77v11.12Zm0,20.28V975h-17.77v10.94Zm12.38-31.4v11.12h18.48V954.53Zm0,20.46v10.94h18.48V975Zm67.83-42.89q26,0,31.22-1.08l-3.94,95.47q-.36,8.43-2.25,12.56c-1.25,2.75-3.8,4.93-7.62,6.55s-9.93,3.08-18.31,4.4a31.8,31.8,0,0,0-6.64-16.69q4.84.36,8.26.36,8.43,0,11-2.52c1.74-1.67,2.66-4.84,2.79-9.51l2.69-77.88h-17.77q-1.61,35.54-3.5,46.93t-5,23.78a69.31,69.31,0,0,1-9.33,21.62q-6.19,9.24-19.29,20.19a35.65,35.65,0,0,0-14.54-10.59q23.15-10.05,30.78-34.19t8.16-67.74a136.27,136.27,0,0,0-17.05,1.26V931q5,.9,17.23,1.08.36-35.36-1.08-40.74a95.38,95.38,0,0,0,17,2c1.68,0,2.51.33,2.51,1a3.38,3.38,0,0,1-1.43,2.25q-2.88,2.32-3.41,18.84Z"/><path class="cls-6" d="M1750.82,931.74q-10-.9-37.33-.9t-34.81.9V918.28q13.63,1.08,36.43,1.08t35.71-1.08Zm10,45.58-10,.54V964q19.38.9,37.5.9t37.15-.9q-11,39.12-25.3,57.24a83.39,83.39,0,0,0,43.42,15.62,32.23,32.23,0,0,0-10.4,15.61q-25.31-8.61-41.28-21.54-12.73,12.39-35.71,23-2.15-6.63-12-11.3H1730v-11.13h-29.07v15.08h-15.07a171,171,0,0,0,1.43-22.43V998.85q0-6.63-.36-13.63,5.21.71,28.81.71t28.26-.71a121.84,121.84,0,0,0-.54,13.63v21.36a130.83,130.83,0,0,0,1.62,21.17q23.68-7.53,37.14-19.2Q1769.49,1008.19,1760.87,977.32Zm-18.31-1.26q-8.07-.88-27.63-.89t-27.64.89V962.6a267.94,267.94,0,0,0,27.46,1.08q17.58,0,27.81-1.08Zm.54-22.61q-5.74-.9-27.81-.9t-27.82.9v-13.1q7.54,1.08,27.73,1.08t27.9-1.08Zm-16-42.35-15.79,5.74a55,55,0,0,0-10.59-21.71l14.72-6.64Q1722.28,901.06,1727.13,911.1Zm-26.2,109.83H1730V997.6h-29.07Zm137.28-81.83c-1.68,3.71-2.51,6.73-2.51,9.06s.06,4.28.18,5.83q-16.34.18-23.6-.54c-4.84-.47-8-1.37-9.33-2.69s-2.06-3.41-2.06-6.28V912.54h-23.51q0,29.43-18.31,48.45a24.37,24.37,0,0,0-12-9.33q9.15-7.36,12.92-14.54a35.62,35.62,0,0,0,3.77-16.78,184.84,184.84,0,0,0-1.26-20.72q8.79.54,27.28.54t27.28-.54q-2.7,7-2.7,28.71v6.46c2.88,3.71,6,5.56,9.43,5.56A117.42,117.42,0,0,0,1838.21,939.1Zm-65,37.86q5.74,23.32,17.59,36.25,10.4-13.1,16.51-36.25Z"/><path class="cls-6" d="M1957.9,932.64q-11.13-.9-39.92-.9t-39.93.9V918.82q14.17,1.08,40,1.07t39.83-1.07Zm-9.15,23q-8.79-.9-31.31-.9t-31.32.9V942.33q11.13,1.06,31.32,1.07t31.31-1.07Zm.18,23.68q-8.79-.88-31.31-.89t-31.32.89V966q11.13,1.08,31.32,1.08t31.31-1.08Zm-14.17,51.86h-32v14.9h-14.35a106.84,106.84,0,0,0,.89-14.72v-27.45q0-6.64-.35-13.64,5.37.72,30,.72t29.88-.72a122.05,122.05,0,0,0-.54,13.64V1029a101.26,101.26,0,0,0,1.08,14.72h-14.71Zm-6.82-120.23L1913,917.2a59.76,59.76,0,0,0-11.12-21.53l14.17-6.64A166.55,166.55,0,0,1,1927.94,910.92Zm-25.13,110h32v-19.56h-32Zm101.57-60.12v63.53a273.11,273.11,0,0,0,1.26,28.89h-17.41a203.77,203.77,0,0,0,2-28.89V960.81q-23.52,0-37.69.9v-14.9q11.85.72,37.69,1.08V915.77q0-20.46-2-27.28a86,86,0,0,0,18.13,1.62c2.15,0,3.23.39,3.23,1.16s-.72,1.62-2.16,2.51a6.17,6.17,0,0,0-2.6,2.52,10.28,10.28,0,0,0-.45,3.5v48.09q30.33-.36,38.4-1.08v14.9Q2032.57,960.81,2004.38,960.81Z"/><path class="cls-6" d="M2124.43,914h45.22q38.4,0,54.92-1.43v16q-17.06-1.44-54-1.44v27.82q29.43-.18,45.58-1.44v14.9q-22.24-1.26-45.58-1.44v31.4q52.93,0,64.78-1.61v16.15q-10.41-1.44-64.78-1.62,0,25.3,1.44,44.33h-18.13q1.44-19.2,1.44-44.33-63.16,0-80,1.62V996.7q10,1.08,30.69,1.44V970a96.38,96.38,0,0,0-1.26-16.51q18.86,1.44,50.61,1.44V927.07h-38.22a228.89,228.89,0,0,1-20.82,30.15q-5.57-3.76-15.61-6.64a137.88,137.88,0,0,0,21.8-27.72,163.27,163.27,0,0,0,15.88-33.29,111.76,111.76,0,0,0,14.54,4.84q5.39,1.26,5.38,2.16c0,.6-.9,1.34-2.69,2.24S2130.06,904.76,2124.43,914Zm30.87,52.94h-34.81v31.4h34.81Z"/><path class="cls-6" d="M2290.24,946.27l-11.66,5.39a36.46,36.46,0,0,0-8.43-12.74q28.71-9.15,49.17-24.23t27.27-28.17a85.24,85.24,0,0,0,17,6.1c1.91.36,2.87,1.11,2.87,2.24s-.9,1.89-2.69,2.24l-1.8.54q8.8,9.87,29.61,20.37a120.53,120.53,0,0,0,42.89,12.65q-6.45,5.93-9.69,17.23l-9-3.59q-.72,12.75-.72,23.15t.72,20.46q-22.26-.72-59.76-.72t-66.57.9q.7-13.11.71-22.08Zm26.2-14.35q-10.21,6.29-21.17,11.84,32.3.72,58.86.72t60.29-.72q-14.72-6.63-24.76-12v5.38q-10.59-1.08-36.79-1.07t-36.43,1.07Zm-4.3,111.8v9h-14.36a69.13,69.13,0,0,0,1.26-14.18v-29.07q0-11-1.08-13.46,14.36.72,55.36.72t54.82-.72q-1.24,3.06-1.25,13.46v28.71a74.32,74.32,0,0,0,1.25,14.36h-15.07v-8.79Zm33-66.4V954.89h-42v22.43Zm-33,38h80.93v-8.61h-80.93Zm80.93,9.33h-80.93v8.8h80.93Zm-56.35-54-13.64,5.74a59.39,59.39,0,0,0-7.17-14.89l12.56-5.57A128.86,128.86,0,0,1,2336.72,970.68Zm15.61-67.47A139.26,139.26,0,0,1,2326,925.64h52.75A103.63,103.63,0,0,1,2352.33,903.21Zm25.49,74.11H2402V954.89H2357.9v22.43h8.61a116.26,116.26,0,0,0,9-21,86.14,86.14,0,0,0,13.28,5.39c1.08.36,1.62.8,1.62,1.34s-.6,1.05-1.8,1.53Q2384.82,966.38,2377.82,977.32Z"/></g></g></g></svg>