<!-- generated with https://bgjar.com/hexagon -->
<svg xmlns="http://www.w3.org/2000/svg" width="800" height="800" preserveAspectRatio="none"><g mask="url(&quot;#SvgjsMask1019&quot;)" fill="none"><path d="M445.273 371.613l-109.587 162.47 272.057-52.882z" fill="rgba(135, 135, 135, 0.4)" class="prefix__triangle-float1"/><path d="M285.35 666.395l16.07 114.337 163.472-81.272zM14.178 428.698L88.612 633.81l125.137-143.954z" fill="rgba(135, 135, 135, 0.4)" class="prefix__triangle-float2"/><path d="M-107.64 693.49a232.76 232.76 0 10465.52 0 232.76 232.76 0 10-465.52 0zM798.702 458.497l-191.6 69.737 69.737 191.6 191.6-69.737z" fill="rgba(135, 135, 135, 0.4)" class="prefix__triangle-float2"/><path d="M569.658 447.348c38.754-.897 67.781-31.427 86.666-65.28 18.302-32.806 25.562-71.497 8.231-104.826-18.669-35.903-54.444-62.891-94.897-61.842-39.046 1.013-67.923 32.325-86.737 66.554-17.99 32.731-24.516 71.217-7.17 104.294 18.589 35.447 53.892 62.026 93.907 61.1" fill="rgba(135, 135, 135, 0.4)" class="prefix__triangle-float3"/><path d="M486.625 380.777L283.492 493.376 396.09 696.508 599.223 583.91z" fill="rgba(135, 135, 135, 0.4)" class="prefix__triangle-float3"/><path d="M-228.51 384.13a262.08 262.08 0 10524.16 0 262.08 262.08 0 10-524.16 0z" fill="rgba(135, 135, 135, 0.4)" class="prefix__triangle-float2"/><path d="M682.84 735.016c57.9-4.279 110.821-32.985 139.401-83.521 28.139-49.757 22.68-108.284-1.685-159.994-29.459-62.521-68.602-136.012-137.716-135.859-68.999.153-102.747 76.38-136.663 136.468-33.042 58.54-76.628 124.43-43.667 183.015 33.287 59.165 112.629 64.895 180.33 59.891" fill="rgba(135, 135, 135, 0.4)" class="prefix__triangle-float3"/><path d="M564.129 450.977l190.724 20.046L774.9 280.3l-190.724-20.046z" fill="rgba(135, 135, 135, 0.4)" class="prefix__triangle-float1"/><path d="M761.967 80.534l-177.732 75.242 132.95 103.872zM36.904 534.2c23.316.653 43.062-16.56 53.503-37.417 9.421-18.819 4.945-40.335-5.406-58.659-10.562-18.698-26.644-35.085-48.097-36.054-22.986-1.039-45.512 10.997-56.264 31.339-10.185 19.269-2.909 41.484 7.714 60.515 10.985 19.679 26.022 39.645 48.55 40.276" fill="rgba(135, 135, 135, 0.4)" class="prefix__triangle-float2"/></g><defs><style>@keyframes float1{0%,to{transform:translate(0,0)}50%{transform:translate(-10px,0)}}@keyframes float2{0%,to{transform:translate(0,0)}50%{transform:translate(-5px,-5px)}}@keyframes float3{0%,to{transform:translate(0,0)}50%{transform:translate(0,-10px)}}.prefix__triangle-float1{animation:float1 5s infinite}.prefix__triangle-float2{animation:float2 4s infinite}.prefix__triangle-float3{animation:float3 6s infinite}</style><mask id="prefix__SvgjsMask1019"><path fill="#fff" d="M0 0h800v800H0z"/></mask></defs></svg>
