<!-- generated with https://bgjar.com/hexagon -->
<svg xmlns="http://www.w3.org/2000/svg" width="1440" height="560" preserveAspectRatio="none"><g mask="url(&quot;#SvgjsMask1972&quot;)" fill="none"><path fill="url(#prefix__SvgjsLinearGradient1973)" d="M0 0h1440v560H0z"/><path d="M123.25 54.46l62.35 36v72l-62.35 36-62.36-36v-72zm0 432l62.35 36v72l-62.35 36-62.36-36v-72zm62.35-540l62.36 36v72l-62.36 36-62.35-36v-72zm0 432l62.36 36v72l-62.36 36-62.35-36v-72zm124.71-216l62.36 36v72l-62.36 36-62.35-36v-72zm0 216l62.36 36v72l-62.36 36-62.35-36v-72zm311.78-324l62.36 36v72l-62.36 36-62.36-36v-72zm62.36-108l62.35 36v72l-62.35 36-62.36-36v-72zm498.84 0l62.36 36v72l-62.36 36-62.35-36v-72zm62.36 108l62.35 36v72l-62.35 36-62.36-36v-72zm0 216l62.35 36v72l-62.35 36-62.36-36v-72zm-62.36 108l62.36 36v72l-62.36 36-62.35-36v-72zm124.71-432l62.36 36v72l-62.36 36-62.35-36v-72zm62.36 108l62.35 36v72l-62.35 36-62.36-36v-72zm-62.36 108l62.36 36v72l-62.36 36-62.35-36v-72z" stroke="url(#prefix__SvgjsLinearGradient1974)" stroke-width="2"/><path d="M116.05 54.46a7.2 7.2 0 1014.4 0 7.2 7.2 0 10-14.4 0zm62.35 36a7.2 7.2 0 1014.4 0 7.2 7.2 0 10-14.4 0zm0 72a7.2 7.2 0 1014.4 0 7.2 7.2 0 10-14.4 0zm-62.35 36a7.2 7.2 0 1014.4 0 7.2 7.2 0 10-14.4 0zm-62.36-36a7.2 7.2 0 1014.4 0 7.2 7.2 0 10-14.4 0zm0-72a7.2 7.2 0 1014.4 0 7.2 7.2 0 10-14.4 0zm62.36 396a7.2 7.2 0 1014.4 0 7.2 7.2 0 10-14.4 0zm62.35 36a7.2 7.2 0 1014.4 0 7.2 7.2 0 10-14.4 0zm0 72a7.2 7.2 0 1014.4 0 7.2 7.2 0 10-14.4 0zm-62.35 36a7.2 7.2 0 1014.4 0 7.2 7.2 0 10-14.4 0zm-62.36-36a7.2 7.2 0 1014.4 0 7.2 7.2 0 10-14.4 0zm0-72a7.2 7.2 0 1014.4 0 7.2 7.2 0 10-14.4 0zm124.71-576a7.2 7.2 0 1014.4 0 7.2 7.2 0 10-14.4 0zm62.36 36a7.2 7.2 0 1014.4 0 7.2 7.2 0 10-14.4 0zm0 72a7.2 7.2 0 1014.4 0 7.2 7.2 0 10-14.4 0zm-124.71-72a7.2 7.2 0 1014.4 0 7.2 7.2 0 10-14.4 0zm62.35 396a7.2 7.2 0 1014.4 0 7.2 7.2 0 10-14.4 0zm62.36 36a7.2 7.2 0 1014.4 0 7.2 7.2 0 10-14.4 0zm0 72a7.2 7.2 0 1014.4 0 7.2 7.2 0 10-14.4 0zm-124.71-72a7.2 7.2 0 1014.4 0 7.2 7.2 0 10-14.4 0zm187.06-252a7.2 7.2 0 1014.4 0 7.2 7.2 0 10-14.4 0zm62.36 36a7.2 7.2 0 1014.4 0 7.2 7.2 0 10-14.4 0zm0 72a7.2 7.2 0 1014.4 0 7.2 7.2 0 10-14.4 0zm-62.36 36a7.2 7.2 0 1014.4 0 7.2 7.2 0 10-14.4 0zm-62.35-36a7.2 7.2 0 1014.4 0 7.2 7.2 0 10-14.4 0zm0-72a7.2 7.2 0 1014.4 0 7.2 7.2 0 10-14.4 0zm62.35 180a7.2 7.2 0 1014.4 0 7.2 7.2 0 10-14.4 0zm62.36 36a7.2 7.2 0 1014.4 0 7.2 7.2 0 10-14.4 0zm0 72a7.2 7.2 0 1014.4 0 7.2 7.2 0 10-14.4 0zm-62.36 36a7.2 7.2 0 1014.4 0 7.2 7.2 0 10-14.4 0zm311.78-468a7.2 7.2 0 1014.4 0 7.2 7.2 0 10-14.4 0zm62.36 36a7.2 7.2 0 1014.4 0 7.2 7.2 0 10-14.4 0zm0 72a7.2 7.2 0 1014.4 0 7.2 7.2 0 10-14.4 0zm-62.36 36a7.2 7.2 0 1014.4 0 7.2 7.2 0 10-14.4 0zm-62.36-36a7.2 7.2 0 1014.4 0 7.2 7.2 0 10-14.4 0zm0-72a7.2 7.2 0 1014.4 0 7.2 7.2 0 10-14.4 0zm124.72-144a7.2 7.2 0 1014.4 0 7.2 7.2 0 10-14.4 0zm62.35 36a7.2 7.2 0 1014.4 0 7.2 7.2 0 10-14.4 0zm0 72a7.2 7.2 0 1014.4 0 7.2 7.2 0 10-14.4 0zm-124.71-72a7.2 7.2 0 1014.4 0 7.2 7.2 0 10-14.4 0zm561.2-36a7.2 7.2 0 1014.4 0 7.2 7.2 0 10-14.4 0zm62.36 36a7.2 7.2 0 1014.4 0 7.2 7.2 0 10-14.4 0zm0 72a7.2 7.2 0 1014.4 0 7.2 7.2 0 10-14.4 0zm-62.36 36a7.2 7.2 0 1014.4 0 7.2 7.2 0 10-14.4 0zm-62.35-36a7.2 7.2 0 1014.4 0 7.2 7.2 0 10-14.4 0zm0-72a7.2 7.2 0 1014.4 0 7.2 7.2 0 10-14.4 0zm187.06 108a7.2 7.2 0 1014.4 0 7.2 7.2 0 10-14.4 0zm0 72a7.2 7.2 0 1014.4 0 7.2 7.2 0 10-14.4 0zm-62.35 36a7.2 7.2 0 1014.4 0 7.2 7.2 0 10-14.4 0zm-62.36-36a7.2 7.2 0 1014.4 0 7.2 7.2 0 10-14.4 0zm62.36 108a7.2 7.2 0 1014.4 0 7.2 7.2 0 10-14.4 0zm62.35 36a7.2 7.2 0 1014.4 0 7.2 7.2 0 10-14.4 0zm0 72a7.2 7.2 0 1014.4 0 7.2 7.2 0 10-14.4 0zm-62.35 36a7.2 7.2 0 1014.4 0 7.2 7.2 0 10-14.4 0zm-62.36-36a7.2 7.2 0 1014.4 0 7.2 7.2 0 10-14.4 0zm0-72a7.2 7.2 0 1014.4 0 7.2 7.2 0 10-14.4 0zm62.36 180a7.2 7.2 0 1014.4 0 7.2 7.2 0 10-14.4 0zm-62.36 36a7.2 7.2 0 1014.4 0 7.2 7.2 0 10-14.4 0zm-62.35-36a7.2 7.2 0 1014.4 0 7.2 7.2 0 10-14.4 0zm0-72a7.2 7.2 0 1014.4 0 7.2 7.2 0 10-14.4 0zm187.06-468a7.2 7.2 0 1014.4 0 7.2 7.2 0 10-14.4 0zm62.36 36a7.2 7.2 0 1014.4 0 7.2 7.2 0 10-14.4 0zm0 72a7.2 7.2 0 1014.4 0 7.2 7.2 0 10-14.4 0zm62.35 36a7.2 7.2 0 1014.4 0 7.2 7.2 0 10-14.4 0zm0 72a7.2 7.2 0 1014.4 0 7.2 7.2 0 10-14.4 0zm-62.35 36a7.2 7.2 0 1014.4 0 7.2 7.2 0 10-14.4 0zm0 72a7.2 7.2 0 1014.4 0 7.2 7.2 0 10-14.4 0z" fill="url(#prefix__SvgjsLinearGradient1974)"/><path d="M50.95 66.07l41.57 24v48l-41.57 24-41.57-24v-48zm-41.57 216l41.57 24v48l-41.57 24-41.57-24v-48zm41.57 72l41.57 24v48l-41.57 24-41.57-24v-48zm83.14-288l41.57 24v48l-41.57 24-41.57-24v-48zm-41.57 216l41.57 24v48l-41.57 24-41.57-24v-48zm41.57 72l41.57 24v48l-41.57 24-41.57-24v-48zm0 144l41.57 24v48l-41.57 24-41.57-24v-48zm41.57-504l41.57 24v48l-41.57 24-41.57-24v-48zm41.57 72l41.57 24v48l-41.57 24-41.57-24v-48zm-41.57 72l41.57 24v48l-41.57 24-41.57-24v-48zm41.57 72l41.57 24v48l-41.57 24-41.57-24v-48zm-41.57 360l41.57 24v48l-41.57 24-41.57-24v-48zm83.14-432l41.57 24v48l-41.57 24-41.57-24v-48zm0 144l41.57 24v48l-41.57 24-41.57-24v-48zm41.57 72l41.57 24v48l-41.57 24-41.57-24v-48zm-41.57 72l41.57 24v48l-41.57 24-41.57-24v-48zm41.57 72l41.57 24v48l-41.57 24-41.57-24v-48zm-41.57 72l41.57 24v48l-41.57 24-41.57-24v-48zm124.71-360l41.57 24v48l-41.57 24-41.57-24v-48zm83.14-144l41.57 24v48l-41.57 24-41.57-24v-48zm-41.57 216l41.57 24v48l-41.57 24-41.57-24v-48zm41.57 216l41.57 24v48l-41.57 24-41.57-24v-48zm-41.57 72l41.57 24v48l-41.57 24-41.57-24v-48zm83.14-576l41.58 24v48l-41.58 24-41.57-24v-48zm41.58 72l41.57 24v48l-41.57 24-41.58-24v-48zm0 144l41.57 24v48l-41.57 24-41.58-24v-48zm0 288l41.57 24v48l-41.57 24-41.58-24v-48zm41.57-360l41.57 24v48l-41.57 24-41.57-24v-48zm41.57 216l41.57 24v48l-41.57 24-41.57-24v-48zm-41.57 72l41.57 24v48l-41.57 24-41.57-24v-48zm83.14-432l41.57 24v48l-41.57 24-41.57-24v-48zm0 288l41.57 24v48l-41.57 24-41.57-24v-48zm41.57 216l41.57 24v48l-41.57 24-41.57-24v-48zm41.57-504l41.57 24v48l-41.57 24-41.57-24v-48zm41.57 360l41.57 24v48l-41.57 24-41.57-24v-48zm-41.57 72l41.57 24v48l-41.57 24-41.57-24v-48zm0 144l41.57 24v48l-41.57 24-41.57-24v-48zm83.14-576l41.57 24v48l-41.57 24-41.57-24v-48zm0 144l41.57 24v48l-41.57 24-41.57-24v-48zm0 144l41.57 24v48l-41.57 24-41.57-24v-48zm41.57 72l41.57 24v48l-41.57 24-41.57-24v-48zm0 144l41.57 24v48l-41.57 24-41.57-24v-48zm-41.57 72l41.57 24v48l-41.57 24-41.57-24v-48zm83.14-576l41.57 24v48l-41.57 24-41.57-24v-48zm41.57 216l41.57 24v48l-41.57 24-41.57-24v-48zm-41.57 360l41.57 24v48l-41.57 24-41.57-24v-48zm83.14-288l41.57 24v48l-41.57 24-41.57-24v-48zm41.57 72l41.57 24v48l-41.57 24-41.57-24v-48zm-41.57 72l41.57 24v48l-41.57 24-41.57-24v-48zm83.14-432l41.57 24v48l-41.57 24-41.57-24v-48zm41.57 216l41.57 24v48l-41.57 24-41.57-24v-48zm0 144l41.57 24v48l-41.57 24-41.57-24v-48zm-41.57 72l41.57 24v48l-41.57 24-41.57-24v-48zm83.14-288l41.57 24v48l-41.57 24-41.57-24v-48zm0 144l41.57 24v48l-41.57 24-41.57-24v-48zm41.57 72l41.57 24v48l-41.57 24-41.57-24v-48zm-41.57 72l41.57 24v48l-41.57 24-41.57-24v-48zm41.57 72l41.57 24v48l-41.57 24-41.57-24v-48zm-41.57 72l41.57 24v48l-41.57 24-41.57-24v-48zm83.14-432l41.57 24v48l-41.57 24-41.57-24v-48zm0 144l41.57 24v48l-41.57 24-41.57-24v-48zm41.57 72l41.57 24v48l-41.57 24-41.57-24v-48zm0 144l41.57 24v48l-41.57 24-41.57-24v-48zm-41.57 72l41.57 24v48l-41.57 24-41.57-24v-48zm83.14-576l41.57 24v48l-41.57 24-41.57-24v-48zm0 144l41.57 24v48l-41.57 24-41.57-24v-48zm0 144l41.57 24v48l-41.57 24-41.57-24v-48zm41.57 72l41.57 24v48l-41.57 24-41.57-24v-48zm0 144l41.57 24v48l-41.57 24-41.57-24v-48zm41.57-360l41.57 24v48l-41.57 24-41.57-24v-48zm0 144l41.57 24v48l-41.57 24-41.57-24v-48zm0 144l41.57 24v48l-41.57 24-41.57-24v-48zm41.57 72l41.57 24v48l-41.57 24-41.57-24v-48zm-41.57 72l41.57 24v48l-41.57 24-41.57-24v-48z" stroke="url(#prefix__SvgjsLinearGradient1975)" stroke-width="2"/></g><defs><linearGradient x1="84.72%" y1="139.29%" x2="15.28%" y2="-39.29%" gradientUnits="userSpaceOnUse" id="prefix__SvgjsLinearGradient1973"><stop stop-color="rgba(14, 42, 71, 1)" offset="0"/><stop stop-color="rgba(36, 0, 64, 1)" offset="1"/></linearGradient><linearGradient x1="1440" y1="280" x2="0" y2="280" gradientUnits="userSpaceOnUse" id="prefix__SvgjsLinearGradient1974"><stop stop-color="rgba(158, 0, 129, 1)" offset=".03"/><stop stop-color="rgba(33, 69, 104, 1)" offset=".98"/></linearGradient><linearGradient x1="0" y1="280" x2="1440" y2="280" gradientUnits="userSpaceOnUse" id="prefix__SvgjsLinearGradient1975"><stop stop-color="rgba(14, 42, 71, 1)" offset="0"/><stop stop-color="rgba(27, 75, 25, 1)" offset="1"/></linearGradient><mask id="prefix__SvgjsMask1972"><path fill="#fff" d="M0 0h1440v560H0z"/></mask></defs></svg>
