<svg width="374.7269328477711" height="109.19854618964293" viewBox="0 -2.29 374.7269328477711 109.19854618964293" class="css-1j8o68f"><defs id="SvgjsDefs1302"></defs><g id="SvgjsG1303" featurekey="nYIUkx-0" transform="matrix(1.2696777199997702,0,0,1.2696777199997702,410.83727170292303,-10.798507148493321)" fill="#c12f2f"><path xmlns="http://www.w3.org/2000/svg" class="st0" d="M-254.7,46.1c0-12.3-9.8-22.3-20.2-22.3s-20.5,10-20.5,22.3c0,7.7,5,14.6,10,18.6l0.2,6.2l20.9-3.3v-3.1  C-259.2,60.5-254.7,53.8-254.7,46.1z" style="fill: none; stroke: #c12f2f; stroke-linecap: round; stroke-linejoin: round; stroke-miterlimit: 10;"></path><g xmlns="http://www.w3.org/2000/svg"><path class="st0" d="M-280.4,86.4c-1.5-0.9-2.4-1.5-3.2-3.1" style="fill: none; stroke: #c12f2f; stroke-linecap: round; stroke-linejoin: round; stroke-miterlimit: 10;"></path><path class="st0" d="M-266.4,84.4c-1.8,2.1-4.4,3.4-7.4,3.4h-1.6c-1.8,0-3.5-0.5-5-1.4" style="fill: none; stroke: #c12f2f; stroke-linecap: round; stroke-linejoin: round; stroke-miterlimit: 10;"></path><path class="st0" d="M-264.3,80.5c-0.4,1.7-1,2.7-2.1,3.9" style="fill: none; stroke: #c12f2f; stroke-linecap: round; stroke-linejoin: round; stroke-miterlimit: 10;"></path><path class="st0" d="M-279.3,87v3.1c0,0,5.6,1.8,10.4,0v-3.7" style="fill: none; stroke: #c12f2f; stroke-linecap: round; stroke-linejoin: round; stroke-miterlimit: 10;"></path><line class="st0" x1="-283.6" y1="83.4" x2="-264.3" y2="80.5" style="fill: none; stroke: #c12f2f; stroke-linecap: round; stroke-linejoin: round; stroke-miterlimit: 10;"></line></g><g xmlns="http://www.w3.org/2000/svg"><path class="st0" d="M-285.2,75.7V73" style="fill: none; stroke: #c12f2f; stroke-linecap: round; stroke-linejoin: round; stroke-miterlimit: 10;"></path><path class="st0" d="M-284.9,80.9c-0.4-1-0.3-1.3-0.3-2.5l0,0" style="fill: none; stroke: #c12f2f; stroke-linecap: round; stroke-linejoin: round; stroke-miterlimit: 10;"></path><path class="st0" d="M-264,75.1v2.8" style="fill: none; stroke: #c12f2f; stroke-linecap: round; stroke-linejoin: round; stroke-miterlimit: 10;"></path><path class="st0" d="M-264,69.7v2.7" style="fill: none; stroke: #c12f2f; stroke-linecap: round; stroke-linejoin: round; stroke-miterlimit: 10;"></path><line class="st0" x1="-284.9" y1="80.9" x2="-264" y2="77.9" style="fill: none; stroke: #c12f2f; stroke-linecap: round; stroke-linejoin: round; stroke-miterlimit: 10;"></line><line class="st0" x1="-285.2" y1="78.4" x2="-264" y2="75.1" style="fill: none; stroke: #c12f2f; stroke-linecap: round; stroke-linejoin: round; stroke-miterlimit: 10;"></line><line class="st0" x1="-285.2" y1="75.7" x2="-264" y2="72.4" style="fill: none; stroke: #c12f2f; stroke-linecap: round; stroke-linejoin: round; stroke-miterlimit: 10;"></line><line class="st0" x1="-285.2" y1="73" x2="-264" y2="69.7" style="fill: none; stroke: #c12f2f; stroke-linecap: round; stroke-linejoin: round; stroke-miterlimit: 10;"></line></g><line xmlns="http://www.w3.org/2000/svg" class="st0" x1="-315.7" y1="23.8" x2="-302" y2="31.3" style="fill: none; stroke: #c12f2f; stroke-linecap: round; stroke-linejoin: round; stroke-miterlimit: 10;"></line><line xmlns="http://www.w3.org/2000/svg" class="st0" x1="-238.3" y1="23.8" x2="-252" y2="31.3" style="fill: none; stroke: #c12f2f; stroke-linecap: round; stroke-linejoin: round; stroke-miterlimit: 10;"></line><line xmlns="http://www.w3.org/2000/svg" class="st0" x1="-293" y1="6.7" x2="-287" y2="20" style="fill: none; stroke: #c12f2f; stroke-linecap: round; stroke-linejoin: round; stroke-miterlimit: 10;"></line><line xmlns="http://www.w3.org/2000/svg" class="st0" x1="-261" y1="6.7" x2="-267" y2="20" style="fill: none; stroke: #c12f2f; stroke-linecap: round; stroke-linejoin: round; stroke-miterlimit: 10;"></line></g><g id="SvgjsG1304" featurekey="PXhRQw-0" transform="matrix(3.0423847732106886,0,0,3.0423847732106886,121.17456942621801,10.26688955022965)" fill="#016565"><path d="M0.6 5.5 l2.98 0 l0 11.8 l2.92 0 l-0.5 2.7 l-5.4 0 l0 -14.5 z M10.58 8.04 c-0.17334 0 -0.26 0.09334 -0.26 0.28 l0 8.84 c0 0.10666 0.01666 0.18332 0.05 0.22998 s0.11 0.07 0.23 0.07 l1.1 0 c0.12 0 0.19666 -0.02334 0.23 -0.07 s0.05 -0.12332 0.05 -0.22998 l0 -8.84 c0 -0.18666 -0.08666 -0.28 -0.26 -0.28 l-1.14 0 z M14.919999999999998 17.94 c0 0.28 -0.03334 0.54334 -0.1 0.79 s-0.18 0.46332 -0.34 0.64998 s-0.37334 0.33666 -0.64 0.45 s-0.6 0.17 -1 0.17 l-3.36 0 c-0.4 0 -0.73334 -0.05666 -1 -0.17 s-0.48 -0.26334 -0.64 -0.45 s-0.27334 -0.40332 -0.34 -0.64998 s-0.1 -0.51 -0.1 -0.79 l0 -10.56 c0 -0.57334 0.15666 -1.03 0.47 -1.37 s0.81 -0.51 1.49 -0.51 l3.6 0 c0.68 0 1.1767 0.17 1.49 0.51 s0.47 0.79666 0.47 1.37 l0 10.56 z M19.02 8.04 l0 5 l1.42 0 c0.18666 0 0.28 -0.1 0.28 -0.3 l0 -4.4 c0 -0.2 -0.09334 -0.3 -0.28 -0.3 l-1.42 0 z M23.58 14.1 c0 0.32 -0.11 0.61334 -0.33 0.88 s-0.54334 0.4 -0.97 0.4 l1.52 4.62 l-3 0 l-1.4 -4.62 l-0.38 0 l0 4.62 l-2.9 0 l0 -14.5 l5.5 0 c0.68 0 1.1767 0.17 1.49 0.51 s0.47 0.79666 0.47 1.37 l0 6.72 z M24.82 5.5 l5.64 0 l0.5 2.7 l-3.16 0 l0 3.44 l2.4 0 l0 2.5 l-2.4 0 l0 3.16 l3.04 0 l-0.5 2.7 l-5.52 0 l0 -14.5 z M34.78 13.16 l0 6.84 l-2.82 0 l0 -14.5 l3.06 0 l1.58 6.12 l1.58 -6.12 l3.08 0 l0 14.5 l-2.82 0 l0 -6.84 l-1.84 5.8 z M44.96 5.5 l2.9 0 l0 14.5 l-2.9 0 l0 -14.5 z M51.94 8.04 l0 5.7 l1.44 0 c0.12 0 0.19666 -0.02334 0.23 -0.07 s0.05 -0.12332 0.05 -0.22998 l0 -5.12 c0 -0.18666 -0.08666 -0.28 -0.26 -0.28 l-1.46 0 z M54.76 5.5 c0.57334 0 1.0033 0.15998 1.29 0.47998 s0.43 0.74666 0.43 1.28 l0 6.94 c0 0.28 -0.03 0.53666 -0.09 0.77 s-0.17 0.43668 -0.33 0.61002 s-0.37334 0.31 -0.64 0.41 s-0.6 0.15 -1 0.15 l-2.48 0 l0 3.86 l-2.88 0 l0 -14.5 l5.7 0 z M58.34 20 l-0.51996 -2.7 l3.12 0 c0.22666 0 0.34 -0.1 0.34 -0.3 l0 -2.64 c0 -0.2 -0.04 -0.32 -0.12 -0.36 s-0.22 -0.06 -0.42 -0.06 l-1.5 0 c-0.21334 0 -0.41668 -0.01666 -0.61002 -0.05 s-0.36668 -0.11 -0.52002 -0.23 s-0.27334 -0.28666 -0.36 -0.5 s-0.13 -0.5 -0.13 -0.86 l0 -4.92 c0 -0.57334 0.15666 -1.03 0.47 -1.37 s0.81 -0.51 1.49 -0.51 l4 0 l0.5 2.7 l-3.28 0 c-0.24 0 -0.36 0.10666 -0.36 0.32 l0 2.64 c0 0.14666 0.03666 0.24666 0.11 0.3 s0.18334 0.08 0.33 0.08 l1.82 0 c0.46666 0 0.82332 0.11 1.07 0.33 s0.37 0.60334 0.37 1.15 l0 4.78 c0 0.8 -0.16334 1.3667 -0.49 1.7 s-0.90332 0.5 -1.73 0.5 l-3.58 0 z M67.60000000000001 20 c-0.84 0 -1.4267 -0.17334 -1.76 -0.52 s-0.5 -0.92 -0.5 -1.72 l0 -12.26 l2.96 0 l0 11.64 c0 0.10666 0.01666 0.18666 0.05 0.24 s0.11 0.08 0.23 0.08 l1.02 0 c0.12 0 0.19666 -0.02666 0.23 -0.08 s0.05 -0.13334 0.05 -0.24 l0 -11.64 l2.96 0 l0 12.26 c0 0.8 -0.16666 1.3733 -0.5 1.72 s-0.92 0.52 -1.76 0.52 l-2.98 0 z M76.86000000000001 13.16 l0 6.84 l-2.82 0 l0 -14.5 l3.06 0 l1.58 6.12 l1.58 -6.12 l3.08 0 l0 14.5 l-2.82 0 l0 -6.84 l-1.84 5.8 z"></path></g><g id="SvgjsG1305" featurekey="mlRtrp-0" transform="matrix(0.6859117592461633,0,0,0.6859117592461633,125.55992846555324,76.71977308357856)" fill="#c12f2f"><path d="M2.0996 20 l0 -13.418 l3.623 0 l0 10.479 l9.7949 0 l0 2.9395 l-13.418 0 z M52.5333125 13.300799999999999 c0 1.1523 -0.21159 2.1696 -0.63477 3.0518 s-1.0286 1.6194 -1.8164 2.2119 s-1.7432 1.04 -2.8662 1.3428 s-2.3845 0.4541 -3.7842 0.4541 s-2.6644 -0.15137 -3.7939 -0.4541 s-2.0915 -0.75032 -2.8857 -1.3428 s-1.4063 -1.3298 -1.8359 -2.2119 s-0.64453 -1.8994 -0.64453 -3.0518 s0.21484 -2.1696 0.64453 -3.0518 s1.0417 -1.6194 1.8359 -2.2119 s1.7562 -1.04 2.8857 -1.3428 s2.3942 -0.4541 3.7939 -0.4541 s2.6611 0.15137 3.7842 0.4541 s2.0784 0.75032 2.8662 1.3428 s1.3933 1.3298 1.8164 2.2119 s0.63477 1.8994 0.63477 3.0518 z M48.8713125 13.300799999999999 c0 -0.5013 -0.079756 -1.001 -0.23926 -1.499 s-0.44271 -0.94563 -0.84961 -1.3428 s-0.96191 -0.7194 -1.665 -0.9668 s-1.5983 -0.37109 -2.6855 -0.37109 c-0.72917 0 -1.3704 0.056963 -1.9238 0.1709 s-1.0319 0.27182 -1.4355 0.47364 s-0.74219 0.43783 -1.0156 0.70802 s-0.49153 0.5599 -0.6543 0.86915 s-0.27832 0.63151 -0.34668 0.9668 s-0.10254 0.66568 -0.10254 0.99121 c0 0.33203 0.03418 0.66731 0.10254 1.0059 s0.18392 0.66244 0.34668 0.97169 s0.38086 0.59733 0.6543 0.86426 s0.61198 0.49967 1.0156 0.69823 s0.88216 0.35481 1.4355 0.46875 s1.1946 0.1709 1.9238 0.1709 c1.0872 0 1.9824 -0.1237 2.6855 -0.37109 s1.2581 -0.56966 1.665 -0.9668 s0.69011 -0.84473 0.84961 -1.3428 s0.23926 -0.99775 0.23926 -1.499 z M76.209028125 20 l-3.623 0 l0 -13.418 l9.082 0 c0.97656 0 1.805 0.10091 2.4854 0.30273 s1.2337 0.48828 1.6602 0.85938 s0.73568 0.81868 0.92774 1.3428 s0.28809 1.1084 0.28809 1.7529 c0 0.56641 -0.079756 1.0612 -0.23926 1.4844 s-0.37435 0.78613 -0.64453 1.0889 s-0.58432 0.55827 -0.94239 0.7666 s-0.73568 0.38086 -1.1328 0.51758 l4.3945 5.3027 l-4.2383 0 l-4.0625 -4.9414 l-3.9551 0 l0 4.9414 z M83.367328125 10.8203 c0 -0.26042 -0.03418 -0.48174 -0.10254 -0.66403 s-0.18718 -0.33041 -0.35645 -0.44435 s-0.39551 -0.19694 -0.67871 -0.24902 s-0.6364 -0.078125 -1.0596 -0.078125 l-4.9609 0 l0 2.8711 l4.9609 0 c0.42317 0 0.77637 -0.026045 1.0596 -0.078125 s0.50944 -0.13509 0.67871 -0.24902 s0.28809 -0.26205 0.35645 -0.44435 s0.10254 -0.40365 0.10254 -0.66407 z M107.81444375 20 l0 -13.418 l13.584 0 l0 2.8613 l-9.8633 0 l0 2.2168 l9.3555 0 l0 2.8613 l-9.3555 0 l0 2.6172 l10 0 l0 2.8613 l-13.721 0 z M158.84359375 20 l0 -9.4238 l-4.9805 9.4238 l-3.4766 0 l-4.9805 -9.4238 l0 9.4238 l-3.623 0 l0 -13.418 l4.9219 0 l5.4199 10.156 l5.4199 -10.156 l4.9023 0 l0 13.418 l-3.6035 0 z M207.6699125 20 l0 -13.418 l3.623 0 l0 13.418 l-3.623 0 z M247.32253125 11.1621 c0 0.67058 -0.097656 1.2874 -0.29297 1.8506 s-0.50944 1.0481 -0.94238 1.4551 s-0.99443 0.72429 -1.6846 0.95215 s-1.53 0.3418 -2.5195 0.3418 l-6.0156 0 l0 4.2383 l-3.623 0 l0 -13.418 l9.6387 0 c0.98955 0 1.8294 0.1123 2.5195 0.33691 s1.2517 0.54036 1.6846 0.94727 s0.74707 0.8903 0.94238 1.4502 s0.29297 1.1751 0.29297 1.8457 z M243.66053125 11.2207 c0 -0.3125 -0.043945 -0.58104 -0.13184 -0.80565 s-0.23274 -0.40853 -0.43457 -0.55176 s-0.4655 -0.24902 -0.79102 -0.31738 s-0.72591 -0.10254 -1.2012 -0.10254 l-5.2344 0 l0 3.457 l5.2344 0 c0.47526 0 0.87565 -0.027666 1.2012 -0.083008 s0.58919 -0.14975 0.79102 -0.28321 s0.34668 -0.30762 0.43457 -0.52246 s0.13184 -0.47852 0.13184 -0.79102 z M279.43565625 10.3613 c-0.25391 -0.1237 -0.58916 -0.26372 -1.0059 -0.41997 s-0.88867 -0.30437 -1.416 -0.44434 s-1.1003 -0.25716 -1.7188 -0.35156 s-1.2532 -0.1416 -1.9043 -0.1416 c-0.52083 0 -0.96517 0.016279 -1.333 0.048828 s-0.67709 0.074863 -0.92774 0.12694 s-0.44922 0.1123 -0.5957 0.18066 s-0.25879 0.13835 -0.33691 0.20996 s-0.12858 0.14322 -0.15137 0.21483 s-0.03418 0.13672 -0.03418 0.19531 c0 0.19531 0.097656 0.36621 0.29297 0.5127 s0.46224 0.27669 0.80078 0.39063 s0.73242 0.22136 1.1816 0.32227 s0.9261 0.20508 1.4307 0.3125 s1.0254 0.22461 1.5625 0.35156 s1.0579 0.27507 1.5625 0.44434 s0.98145 0.36621 1.4307 0.59082 s0.8431 0.48665 1.1816 0.78613 s0.60547 0.64453 0.80078 1.0352 s0.29297 0.83659 0.29297 1.3379 c0 0.64453 -0.11394 1.1979 -0.3418 1.6602 s-0.53223 0.85286 -0.91309 1.1719 s-0.82194 0.57455 -1.3232 0.76661 s-1.0271 0.34018 -1.5771 0.44435 s-1.1067 0.17253 -1.6699 0.20508 s-1.0986 0.048828 -1.6064 0.048828 c-1.3281 0 -2.5569 -0.10905 -3.6865 -0.32715 s-2.1272 -0.4899 -2.9932 -0.81542 l0 -3.2031 c0.89192 0.49479 1.9092 0.88217 3.0518 1.1621 s2.3649 0.41992 3.667 0.41992 c0.76823 0 1.3948 -0.040693 1.8799 -0.12207 s0.86426 -0.18555 1.1377 -0.3125 s0.45898 -0.2653 0.55664 -0.41504 s0.14648 -0.29297 0.14648 -0.42969 c0 -0.21484 -0.097656 -0.40202 -0.29297 -0.56152 s-0.46224 -0.29947 -0.80078 -0.41991 s-0.73242 -0.23111 -1.1816 -0.33202 s-0.9261 -0.20182 -1.4307 -0.30272 s-1.0237 -0.20996 -1.5576 -0.32715 s-1.053 -0.25554 -1.5576 -0.41504 s-0.98145 -0.34505 -1.4307 -0.55664 s-0.8431 -0.46225 -1.1816 -0.75196 s-0.60547 -0.625 -0.80078 -1.0059 s-0.29297 -0.82194 -0.29297 -1.3232 c0 -0.59245 0.10417 -1.1035 0.3125 -1.5332 s0.4899 -0.7959 0.84472 -1.0986 s0.76497 -0.54851 1.2305 -0.7373 s0.95541 -0.33528 1.4697 -0.43945 s1.0352 -0.17578 1.5625 -0.21484 s1.0286 -0.058594 1.5039 -0.058594 c0.52083 0 1.0563 0.026045 1.6064 0.078125 s1.0921 0.12532 1.626 0.21973 s1.0498 0.20346 1.5479 0.32716 s0.95866 0.25391 1.3818 0.39063 l0 3.1055 z M316.56790625 15.4785 c0 0.67058 -0.16599 1.3021 -0.49802 1.8945 s-0.83008 1.1101 -1.4941 1.5527 s-1.4925 0.79264 -2.4854 1.0498 s-2.1533 0.38574 -3.4814 0.38574 s-2.4919 -0.12858 -3.4912 -0.38574 s-1.8311 -0.60709 -2.4951 -1.0498 s-1.1621 -0.96028 -1.4941 -1.5527 s-0.49805 -1.2239 -0.49805 -1.8945 l0 -8.8965 l3.6133 0 l0 7.5977 c0 0.44922 0.056963 0.87402 0.1709 1.2744 s0.32878 0.75032 0.64453 1.0498 s0.75846 0.53711 1.3281 0.71289 s1.3103 0.26367 2.2217 0.26367 c0.90495 0 1.6406 -0.087891 2.207 -0.26367 s1.0075 -0.41341 1.3232 -0.71289 s0.52896 -0.64941 0.63964 -1.0498 s0.16602 -0.8252 0.16602 -1.2744 l0 -7.5977 l3.623 0 l0 8.8965 l0 0 z M354.482265625 20 l0 -9.4238 l-4.9805 9.4238 l-3.4766 0 l-4.9805 -9.4238 l0 9.4238 l-3.623 0 l0 -13.418 l4.9219 0 l5.4199 10.156 l5.4199 -10.156 l4.9023 0 l0 13.418 l-3.6035 0 z"></path></g></svg>
