<svg id="Layer_1" data-name="Layer 1" xmlns="http://www.w3.org/2000/svg" viewBox="0 0 1000 1000"><defs><style>.cls-1{fill:#8afff9;}</style></defs><path class="cls-1" d="M413.83,976A149.77,149.77,0,0,1,395,974.78c-58.42-7.39-102.55-42.13-127.6-100.37a254.33,254.33,0,0,1-19.55-82.26v-4.07l20.55-85.44,196.67,37-10.87,57.91L312.61,770.9l-5.47,22.69c1.7,20,13.9,112.38,95.46,122.77,30.23,3.69,54.66-7.84,74.61-35.74a170.2,170.2,0,0,0,23.28-48.26l9.87-119.77L281.24,668.24l11.08-57.84,280.86,54.22L558.4,842l-.55,2.26A227.41,227.41,0,0,1,526,913C497.24,954.57,458.88,976,413.83,976Z"/><path class="cls-1" d="M572.52,635.16l-291.65-65,24.76-266.07,1.11-3.26c4.14-12.34,104-301.81,289-275.09,54.47,7.87,95.67,33.26,122.5,75,64.71,101.15,17.37,264,15.34,270.92l-1.4,4.69L614.79,541.48,399.13,491l11.38-168,1.33-3.7c5.21-15,53-147.81,123.39-177.79a75.65,75.65,0,0,1,62.82.45c24.8,11.38,52.81,41.31,45.31,119.44A413.7,413.7,0,0,1,628,337.9l-1.85,6-74.83,85-44.16-39,66.51-75.32c14.42-49.7,17.67-110.64,0-118.77a17,17,0,0,0-15.11.19c-32.48,13.85-71.29,88.47-89.62,139.28l-7.39,110,128.38,29.9,88.7-124.69c6.54-24.79,35.47-147.52-9.76-218-17.41-27.13-44-42.94-81.3-48.34-54.95-7.94-108.8,27.39-160,105a651,651,0,0,0-63.57,127.57L344.62,523.89l241,53.74Z"/><rect class="cls-1" x="366.97" y="799.22" width="58.91" height="90.13" transform="translate(-510.4 1062.53) rotate(-78.38)"/></svg>